<?xml version="1.0" standalone="no"?>
<!DOCTYPE svg PUBLIC "-//W3C//DTD SVG 20010904//EN"
 "http://www.w3.org/TR/2001/REC-SVG-20010904/DTD/svg10.dtd">
<svg version="1.0" xmlns="http://www.w3.org/2000/svg"
 width="424.000000pt" height="424.000000pt" viewBox="0 0 424.000000 424.000000"
 preserveAspectRatio="xMidYMid meet">
<metadata>
Created by potrace 1.11, written by Peter Selinger 2001-2013
</metadata>
<g transform="translate(0.000000,424.000000) scale(0.100000,-0.100000)"
fill="#000000" stroke="none">
<path d="M1070 4193 c-1 -27 -2 -781 -4 -1678 -2 -1486 -4 -1634 -19 -1679
-59 -172 -182 -240 -419 -230 -57 3 -118 9 -135 13 l-33 9 0 -304 c0 -236 3
-304 13 -305 6 0 32 -3 57 -7 62 -9 382 -8 451 1 31 4 71 12 88 17 17 5 32 9
34 8 17 -2 141 44 203 77 228 119 346 308 411 655 3 19 8 808 10 1753 l4 1717
-331 0 -330 0 0 -47z"/>
<path d="M2519 4238 c0 -2 -1 -390 -2 -863 l-2 -860 -330 -2 c-181 -1 -336 -2
-342 -2 -10 -1 -13 -68 -13 -301 l0 -300 28 -1 c15 0 169 -1 342 -2 l315 -2 2
-945 c1 -520 2 -948 2 -952 1 -5 150 -8 331 -8 l330 0 0 2120 0 2120 -330 0
c-181 0 -330 -1 -331 -2z"/>
</g>
</svg>
