<?xml version="1.0" encoding="utf-8"?>
<!-- Generator: Adobe Illustrator 24.2.0, SVG Export Plug-In . SVG Version: 6.00 Build 0)  -->
<svg version="1.1" id="Illustration" xmlns="http://www.w3.org/2000/svg" xmlns:xlink="http://www.w3.org/1999/xlink" x="0px"
	 y="0px" viewBox="0 0 1084.3 1573.1" style="enable-background:new 0 0 1084.3 1573.1;" xml:space="preserve">
<style type="text/css">
	.st0{fill:#16748E;}
	.st1{fill:#0F4D63;}
	.st2{fill:#E0E0E0;}
	.st3{fill:url(#SVGID_1_);}
	.st4{fill:url(#SVGID_2_);}
	.st5{fill:#EDBE9A;}
	.st6{fill:#0B313A;}
	.st7{fill:url(#SVGID_3_);}
	.st8{fill:#C6C6C6;}
	.st9{fill:url(#SVGID_4_);}
	.st10{fill:url(#SVGID_5_);}
	.st11{fill:#DBDBDB;}
	.st12{fill:url(#SVGID_6_);}
	.st13{fill:url(#SVGID_7_);}
	.st14{fill:#AFAFAF;}
	.st15{fill:#939393;}
	.st16{fill:#9B9B9B;}
	.st17{fill:url(#SVGID_8_);}
	.st18{fill:url(#SVGID_9_);}
	.st19{fill:url(#SVGID_10_);}
	.st20{fill:url(#SVGID_11_);}
	.st21{fill:url(#SVGID_12_);}
	.st22{fill:#CECAB6;}
	.st23{display:none;fill:#939189;}
	.st24{fill:#939189;}
	.st25{fill:url(#SVGID_13_);}
	.st26{fill:url(#SVGID_14_);}
	.st27{fill:url(#SVGID_15_);}
	.st28{fill:url(#SVGID_16_);}
	.st29{fill:url(#SVGID_17_);}
	.st30{fill:#8E4413;}
	.st31{fill:url(#SVGID_18_);}
	.st32{fill:url(#SVGID_19_);}
	.st33{fill:url(#SVGID_20_);}
</style>
<g id="Background">
	<path class="st0" d="M1043.8,572.4c20.3,97.4-36.3,209.5-114.8,268.2c-57.1,42.7-84.1,26.1-212.2,70.8
		c-150.4,52.5-153.4,89.4-241.5,112.5c-107.9,28.4-298.8,24.4-404.2-108.9c-101-127.7-88.6-329.8,0.7-432.1
		c84.2-96.4,203.6-66.2,281-189.3c45.6-72.4,17.7-104.3,61.7-154.8c92-105.4,335.4-105.5,430.6,3.9c59.7,68.6,13.1,125.2,89.2,262.5
		C989.4,504.4,1029.4,503.1,1043.8,572.4z"/>
	<path class="st1" d="M69.4,421.8c42.2-83.1,127.3-115.8,160.5-128.5c66.8-25.7,87.7-9.2,167.1-31.8c91.3-26,110-60.9,175.5-89.8
		c98.5-43.5,265.8-57.1,385.7,40.2c92.6,75.1,146.6,208,118.8,325.1c-30.4,128.3-154.6,219.7-245.9,256.6
		c-66.4,26.8-117.8,25.8-157.5,77.9c-32.5,42.7-20.8,73.3-60.5,136.5c-15.4,24.5-45.5,72.4-96,97.8c-89.9,45.2-226.8,10.4-281.8-70
		c-46.2-67.5,2.7-112.7-47-217.7c-36.6-77.4-70.2-67.8-107.1-144.7C71.7,653.6,13.4,531.9,69.4,421.8z"/>
</g>
<g id="Figur">
	<ellipse class="st2" cx="446.7" cy="1517.5" rx="231.5" ry="55.6"/>
	<g id="Beine">
		
			<linearGradient id="SVGID_1_" gradientUnits="userSpaceOnUse" x1="448.6766" y1="-0.1213" x2="452.2057" y2="19.8531" gradientTransform="matrix(1 0 0 -1 0 1446.439)">
			<stop  offset="0" style="stop-color:#EDBE9A"/>
			<stop  offset="0.6882" style="stop-color:#E5AB86"/>
			<stop  offset="1" style="stop-color:#E1A17C"/>
		</linearGradient>
		<path class="st3" d="M425.4,1415.6c0,0,0.4,13.7,0.3,19.6l-4.7,17h55.1l0.8-13.9c0.3-3.1,2-6.6,3.8-10.2L425.4,1415.6z"/>
		
			<linearGradient id="SVGID_2_" gradientUnits="userSpaceOnUse" x1="603.227" y1="108.5711" x2="571.0397" y2="141.5255" gradientTransform="matrix(1 0 0 -1 0 1446.439)">
			<stop  offset="0" style="stop-color:#EDBE9A"/>
			<stop  offset="0.6882" style="stop-color:#E5AB86"/>
			<stop  offset="1" style="stop-color:#E1A17C"/>
		</linearGradient>
		<path class="st4" d="M552.7,1330.1c6.7,8,10.4,16.3,12.4,24.8c5.8,3.9,23-0.7,43.9-10l6.4-35.5l-17.1-32.6l-13-1.2L552.7,1330.1z"
			/>
		<path class="st5" d="M601.6,1253.1"/>
	</g>
	<g id="Schuh_links">
		<path class="st6" d="M561.4,1357.6c-2.9-14.8,22.7-15.4,31.8-7.2l-2,39.8l3.3,59.8l-25.4,0.9c2.7-10,2.9-42.7,2.9-42.7
			s-0.8-25.7-7.4-41.9C563.3,1361.9,561.4,1357.6,561.4,1357.6z"/>
		<path class="st1" d="M580.8,1361.1c0,0,36.8-36.6,17.3-84.5h-1.5c0.3-1,0.9-1.9,1.7-2.5c13.2-1.6,25.6-2.2,34.6,1.1
			c11.7,15,8.3,23.5,4.4,45.7c-7,37.4-8.5,68.8-8.7,100.1c0.7,21-3.6,36-12.7,46.7l-23.7-16.6
			C593.9,1425.6,585.8,1366.4,580.8,1361.1z"/>
		<path class="st1" d="M566,1452.8c0,0,2-8.7,2.4-12.3c0.4,0,4.9-51.7-5.1-73.9l1-1.2c7.8,15.2,8.4,44.5,8.1,75.6
			c-0.1,2.9-0.6,7.2-1.1,8.6L566,1452.8z"/>
		
			<linearGradient id="SVGID_3_" gradientUnits="userSpaceOnUse" x1="591.2227" y1="0.2498" x2="589.9865" y2="-59.048" gradientTransform="matrix(1 0 0 -1 0 1446.439)">
			<stop  offset="0" style="stop-color:#C6C6C6"/>
			<stop  offset="0.3618" style="stop-color:#B2B2B2"/>
			<stop  offset="1" style="stop-color:#878787"/>
		</linearGradient>
		<path class="st7" d="M616.9,1463.3c-21.6-19.1-39.4-21.2-51.5-10.5c-1.2,12.5-0.5,21.8,3.3,31.2
			C582.1,1500.4,604.5,1499.3,616.9,1463.3z"/>
		<path class="st8" d="M564.9,1465c0.3,9.3,1,18.3,4,23.8c4,6.6,13.2,10.4,18.5,10.4c5.5,0,8.1-0.6,11.7-2
			c7.9-3.4,16-12.9,18.9-16.9c2.8-4.1,6.8-12.5,6.8-12.5c7.3-19.7,12.2-52.2,15.8-91.5c2.2-21.2,5.6-43.7,9.9-67
			c1.4-14-0.9-21.9-6.8-31.3l-12.8-4c-0.5,0-0.9,0.1-1.5,0.3l0.9,0.2c7,9.9,9.9,24.4,9.1,32.5c-0.9,8.1-7.6,44.1-11,66.3
			c-3.5,39.4-4.4,83.2-19,102.7c-5.5,6.7-10.4,10.9-16.8,14.5c-9.5,4.2-18,2.9-24.3-8.6C566.4,1477.1,564.9,1465,564.9,1465z"/>
		<path class="st1" d="M565,1451.1"/>
		<path class="st1" d="M565,1451.1"/>
		<path class="st1" d="M571.6,1447.6"/>
	</g>
	<g id="Schuh_rechts">
		<path class="st6" d="M452.4,1520.7l39-5l-17.1-67.3c-13.5-17.2-24.4-14.4-40.9-0.2L452.4,1520.7z"/>
		<path class="st1" d="M447.2,1532.6l11.6-17.8c-3.1-10.4-6.3-43.4-6.3-43.4c-2.1-9.8-4.5-18.9-8.3-25.3c-8.2,0.3-14.5-0.6-20.6-3
			l0.1-0.4c-0.2,0-0.8,0.2-1,0.3l-5.1,12.9c-5.8,13.3-7.7,22.4-6.4,28.1c0,0,11.3,16.7,19.8,24.3l4.5,9.2l3.2,11.3L447.2,1532.6z"/>
		<path class="st1" d="M507.1,1535.1l3.9-14.4c-1.9-4.2-3.9-8.1-6.6-11.2c-7.1-7.1-12.9-15-16.7-23.9l-9.9-30.3l-0.5-8.6
			c-0.2-0.2-0.5-0.3-0.8-0.5v0.5c-2.4,1.3-4.8,1.5-7.8,1.2c0,0-0.1,16.2,1.2,23.6c2.7,10.3,5.8,19.6,9.2,27.7
			C483.4,1507.8,502.3,1531.2,507.1,1535.1z"/>
		
			<linearGradient id="SVGID_4_" gradientUnits="userSpaceOnUse" x1="471.1403" y1="-68.0076" x2="489.0534" y2="-120.6739" gradientTransform="matrix(1 0 0 -1 0 1446.439)">
			<stop  offset="0" style="stop-color:#C6C6C6"/>
			<stop  offset="0.3618" style="stop-color:#B2B2B2"/>
			<stop  offset="1" style="stop-color:#878787"/>
		</linearGradient>
		<path class="st9" d="M511,1519.6c-8.7-13.7-48.9-25.3-72.4,10.4c1.8,18,48.9,22.2,53.8,12.7C505.5,1538.6,511.6,1530.8,511,1519.6
			z"/>
		
			<linearGradient id="SVGID_5_" gradientUnits="userSpaceOnUse" x1="449.8425" y1="-88.8775" x2="408.1946" y2="-184.5988" gradientTransform="matrix(1 0 0 -1 0 1446.439)">
			<stop  offset="0" style="stop-color:#C6C6C6"/>
			<stop  offset="0.4347" style="stop-color:#B2B2B2"/>
			<stop  offset="1" style="stop-color:#939393"/>
		</linearGradient>
		<path class="st10" d="M409.3,1482.7c-0.9,7,0,10.7,1.6,15.9c12,11.2,16.5,23.5,20.6,35.2l11.3,12.8c24.5,14.4,67,5.5,70.3-11.5
			c0.9-5.3-1.1-14.4-1.1-14.4c-3.7-5.8-5.3-9-7.6-11.2c2.7,3.4,4.7,6.7,5.5,10.1c0.5,22.6-47.5,29.3-70.1,8.3
			c-2.2-7.8-5-14.6-8.8-19.6l-19.8-25.6l-0.4-1.5L409.3,1482.7z"/>
		<path class="st11" d="M513.7,1524.1"/>
	</g>
	<g id="Hose">
		
			<linearGradient id="SVGID_6_" gradientUnits="userSpaceOnUse" x1="405.4825" y1="-10.7145" x2="581.2484" y2="782.0819" gradientTransform="matrix(1 0 0 -1 0 1446.439)">
			<stop  offset="0" style="stop-color:#9D9D9C"/>
			<stop  offset="0.2147" style="stop-color:#898989"/>
			<stop  offset="0.2382" style="stop-color:#878787"/>
			<stop  offset="0.5825" style="stop-color:#9B9B9A"/>
			<stop  offset="0.6201" style="stop-color:#9D9D9C"/>
			<stop  offset="0.8712" style="stop-color:#AFAFAF"/>
			<stop  offset="1" style="stop-color:#9D9D9C"/>
		</linearGradient>
		<path class="st12" d="M487.6,626.6l102.5,14.8c9,26,17.4,50.3,22.2,64.4c1.1,9.8,1,18,0,24.8l7.9,34.8c1.5,11.7-5.1,56.7-9.5,92.3
			c-13.8,102.1-26.8,198.4-35.3,261.1c-7,47.3-14.2,91.1-21.4,128.7l-22.9,81.2c-9.2,25.8-18.9,49.6-29.5,70.2
			c-17.1-0.6-34.1-2.4-50.7-6.6c-9-2.7-17-5.5-23.1-8.7c0.4-12.4,1-24.8,2.1-37.5c3.4-14.8,11.5-32.5,21.1-53.3
			c-0.9-27.6,1.4-54.8,7.9-82.3l6.9-249.5L463,836.5L487.6,626.6z"/>
		
			<linearGradient id="SVGID_7_" gradientUnits="userSpaceOnUse" x1="606.282" y1="36.0307" x2="330.4755" y2="858.6119" gradientTransform="matrix(1 0 0 -1 0 1446.439)">
			<stop  offset="0" style="stop-color:#878787"/>
			<stop  offset="0.1536" style="stop-color:#9B9B9B"/>
			<stop  offset="0.2867" style="stop-color:#AFAFAF"/>
			<stop  offset="0.781" style="stop-color:#AFAFAF"/>
			<stop  offset="1" style="stop-color:#878787"/>
		</linearGradient>
		<path class="st13" d="M487.6,626.6l-175.3,17l-5,94.3l1.3,26.3c-2,12.4-3.3,23.9-2.5,32.6c0.9,7.3,6.4,17.1,7,22.4
			s-1.1,26.8-0.8,32c1.1,11.1-0.2,27.2,4.7,36.4c3.3,10.9,35.2,172.5,35.2,172.5l5.5,38.8c3.9,9.1,10.3,16.3,17.4,22.9
			c1.9,7.4,3.6,14,5.1,20.2c2.9,10.1,29.5,36.3,47.7,56.8l37.5,54.1l42.3,56.1l9.4,7.9l12.1,5.8h13.2c16.6-10.2,33.1-20.4,39-35.9
			c3.9-8.9,1.3-20.3-2.6-32.2L562,1236l-23.3-48.4l-35.9-62.8c-2-2.7-10.3-7.6-10.3-7.6c-1.2-14-5.9-19.2-14.3-29.7
			c0,0-9.9-75.8-10.7-113l5.3-90.7l2.4-73.5c-0.3-3,21.1-36.2,21.1-36.2s3.6-36.7,3.6-59.6c-0.8-18.9-3.8-41.4-7.6-65.2L487.6,626.6
			z"/>
		<path class="st14" d="M424.7,1383.4c0.2-0.4,1.9-1.6,2.9-1.4v1.5c0,0,14.7,5.5,23.2,7.9c16.1,3.4,50.6,7.4,50.6,7.4l1.2-2.3
			c1.5,1.3,2,2.9,2.2,3.2l-11.6,30.1c0,0-10.7,2.7-15,2c-11.9-1.4-24-2.5-36.4-3.4c-7.9-1.7-19.1-7.2-19.1-7.2s-2.9-2.4-2.7-4.5
			C420.7,1404.2,424.7,1383.4,424.7,1383.4z"/>
		<path class="st14" d="M518.9,1317.8l-4.4-3.1c-1.3,2.7-1.2,5.4,0,8.1l20.4,22.7c6.1,0.8,12.5-0.9,19-2.8
			c9.9-5,19.8-12.9,29.7-22.7c5.9-10.3,10.1-21.2,12.4-32.8c-0.3-7.8-0.8-15-2.3-19.5l-13.1-15.9c-1.8-0.9-3.5-1.1-5-0.8l1.8,2
			c0.3,7.5,0.2,15.7-1,22.8c-1.2,7.1-5.9,14-11.3,21.5c-9.3,9.4-18.8,17.4-28.9,21.3C531.4,1320,525.5,1319.5,518.9,1317.8z"/>
		<path class="st15" d="M475.5,810.5c4.3-0.3,20.8-31,20.7-31.6c0,0,4.7-44.8,3.7-71c-2-24.6-4.7-47.1-8.7-65l-22.6,1.9
			c3.5,25.4,6.6,49.4,9,69.9c1.3,23.5,0.8,46.9,0,68.6L475.5,810.5z"/>
		<path class="st15" d="M307.4,737.9c21.8,2.9,31.3-32.7,39.2-72.9l13.5-2.6c-12,61.4-21.9,89.6-52.1,87.9L307.4,737.9z"/>
		<path class="st15" d="M612.3,730.5l-10.8-25.2c-8.3-20.6-18.5-39.5-32.7-55l23.1,10.7l12.6,21.6l7.8,23.1
			C613.4,714.3,613.3,722.6,612.3,730.5z"/>
		<path class="st16" d="M254.6,702.1"/>
	</g>
	<g id="Oberarm_Links">
		
			<linearGradient id="SVGID_8_" gradientUnits="userSpaceOnUse" x1="648.9243" y1="999.8601" x2="634.5312" y2="915.1077" gradientTransform="matrix(1 0 0 -1 0 1446.439)">
			<stop  offset="0" style="stop-color:#EDBE9A"/>
			<stop  offset="0.1773" style="stop-color:#EBBA95"/>
			<stop  offset="0.6603" style="stop-color:#E1A981"/>
			<stop  offset="1" style="stop-color:#D89A71"/>
		</linearGradient>
		<polygon class="st17" points="623.3,522.2 673.2,547 636,376.6 609.1,437.8 		"/>
	</g>
	<g id="Hals">
		
			<linearGradient id="SVGID_9_" gradientUnits="userSpaceOnUse" x1="444.0841" y1="1155.42" x2="444.4008" y2="1278.1216" gradientTransform="matrix(1 0 0 -1 0 1446.439)">
			<stop  offset="0" style="stop-color:#EDBE9A"/>
			<stop  offset="1" style="stop-color:#D89A71"/>
		</linearGradient>
		<path class="st18" d="M336.3,248.5l61.3-3.8c15.6-1,23.7-11.5,26-32.5l80.3-22.4c-4.3,23.4,0.7,56.3,4.5,65.4
			c7.4,16.9,23,24.2,43.6,29.7l-61.6,63.7l-88.6-33.8L336.3,248.5z"/>
	</g>
	<g id="Arm_Rechts">
		
			<linearGradient id="SVGID_10_" gradientUnits="userSpaceOnUse" x1="296.3106" y1="917.6181" x2="337.5617" y2="1009.0847" gradientTransform="matrix(1 0 0 -1 0 1446.439)">
			<stop  offset="0" style="stop-color:#EDBE9A"/>
			<stop  offset="1" style="stop-color:#D89A71"/>
		</linearGradient>
		<path class="st19" d="M345.9,667.8c0,0-29.2-21.4-39.8-25.3C287.6,610,276.3,496,276.3,496c-0.8-4.9-0.2-10.2,2.4-14.6
			c0,0,44.8-102.5,74.3-167.8c6-6.8,9.7-15.8,9.7-25.6c0-21.4-15.2-39-36.3-35.8c-15.8,2.4-33.8,12.6-39.2,29.1
			c-24.5,59-54.3,117.8-71.1,178c-1.4,11.6-1.6,21.9,0,30c0,0,22.4,127.2,50.3,171.4c1.9,5.8,3.3,11.3,4.5,16.6
			c6.3,20.1,35.6,62.6,36.7,60.7C330.7,740.2,337.9,703.1,345.9,667.8z"/>
	</g>
	<g id="Tshirt">
		
			<linearGradient id="SVGID_11_" gradientUnits="userSpaceOnUse" x1="440.7749" y1="1213.9735" x2="451.2121" y2="743.7998" gradientTransform="matrix(1 0 0 -1 0 1446.439)">
			<stop  offset="0" style="stop-color:#3C3C3B"/>
			<stop  offset="1" style="stop-color:#161616"/>
		</linearGradient>
		<path class="st20" d="M288,275.2c0,0-47.9,82.6-67,123.6c22,22.5,51.7,37.2,82.7,43.5l10.6-23.2c3.4,29.1,2.8,60.4-0.5,93.2
			c-1,24.8-16.8,106.5-16.8,106.5c2.3,8.9,5.3,16.9,9.1,23.6c12.2,6.5,25.6,15,39.8,25.3c0,0,34.8-8.4,43-10
			c19.2-3.7,40.6-6.5,63.8-8.4c29.1-2.8,59.5-3,91.8,0.5c16.3,1,32.1,4.8,47.5,11.6l12.1,20.6c1.4-2.1,3.8-14.7,3-23.3
			c-1.9-12-0.6-20.9-5.9-35.2c-3.5-10.3-3.3-25.3-3.4-43.1l-5.3-85l8.4-21.1l4.9-18.5l-4.9,32.5c26.7,5.9,69.5-6.2,68.8-9.9
			c-21.5-68.9-39.9-159.3-69.9-176.6C579.4,292.6,530,276,530,276c-1.1,0-2.1,0.2-3,0.6c0.6,0.3,1.1,0.5,1.7,0.8
			c-15.9,31.4-56.9,41.7-80.4,38.2c-23.5-3.6-57.8-26.9-57.1-70.4l1.6-0.1c-0.5-0.5-1.1-1-1.7-1.3l-9.2-0.1l-45.7,4.3
			C313,251.7,297.2,260.1,288,275.2z"/>
	</g>
	<g id="Block">
		
			<linearGradient id="SVGID_12_" gradientUnits="userSpaceOnUse" x1="587.2694" y1="1071.6301" x2="573.9746" y2="922.9224" gradientTransform="matrix(1 0 0 -1 0 1446.439)">
			<stop  offset="0" style="stop-color:#F6F6F6"/>
			<stop  offset="1" style="stop-color:#D6D6D6"/>
		</linearGradient>
		<polygon class="st21" points="502,611.5 627.7,580.8 651.3,375.8 524.2,395.1 		"/>
		<polygon class="st22" points="498,609.7 502,611.5 524.2,395.1 519.9,393.6 		"/>
		<polygon class="st22" points="519.9,393.6 524.2,395.1 651.3,375.8 644.8,374.6 		"/>
		<path class="st23" d="M530.8,384.8c-2.8,0.4-4.6,3.8-4.1,7.7l0.9-0.1c-0.4-3.2,1.1-5.9,3.3-6.2c2.3-0.3,4.4,2,4.9,5.2
			c0.3,2.5-0.5,4.7-1.9,5.7c-0.5,0.5-0.2,1.4,0.2,1.4c1.9-1.2,3.1-4.1,2.6-7.2C536.2,387.3,533.5,384.5,530.8,384.8z"/>
		<path class="st24" d="M536.7,383.9c-2.8,0.4-4.6,3.8-4.1,7.7l0.9-0.1c-0.4-3.2,1.1-5.9,3.3-6.2c2.3-0.3,4.4,2,4.9,5.2
			c0.3,2.5-0.5,4.7-1.9,5.7c-0.5,0.5-0.2,1.4,0.2,1.4c1.9-1.2,3.1-4.1,2.6-7.2C542.2,386.4,539.5,383.6,536.7,383.9z"/>
		<path class="st23" d="M542.7,383c-2.8,0.4-4.6,3.8-4.1,7.7l0.9-0.1c-0.4-3.2,1.1-5.9,3.3-6.2c2.3-0.3,4.4,2,4.9,5.2
			c0.3,2.5-0.5,4.7-1.9,5.7c-0.5,0.5-0.2,1.4,0.2,1.4c1.9-1.2,3.1-4.1,2.6-7.2C548.1,385.5,545.4,382.7,542.7,383z"/>
		<path class="st24" d="M548.6,382.1c-2.8,0.4-4.6,3.8-4.1,7.7l0.9-0.1c-0.4-3.2,1.1-5.9,3.3-6.2c2.3-0.3,4.4,2,4.9,5.2
			c0.3,2.5-0.5,4.7-1.9,5.7c-0.5,0.5-0.2,1.4,0.2,1.4c1.9-1.2,3.1-4.1,2.6-7.2C554.1,384.6,551.4,381.8,548.6,382.1z"/>
		<path class="st23" d="M554.6,381.2c-2.8,0.4-4.6,3.8-4.1,7.7l0.9-0.1c-0.4-3.2,1.1-5.9,3.3-6.2c2.3-0.3,4.4,2,4.9,5.2
			c0.3,2.5-0.5,4.7-1.9,5.7c-0.5,0.5-0.2,1.4,0.2,1.4c1.9-1.2,3.1-4.1,2.6-7.2C560,383.7,557.3,380.8,554.6,381.2z"/>
		<path class="st24" d="M560.5,380.3c-2.8,0.4-4.6,3.8-4.1,7.7l0.9-0.1c-0.4-3.2,1.1-5.9,3.3-6.2c2.3-0.3,4.4,2,4.9,5.2
			c0.3,2.5-0.5,4.7-1.9,5.7c-0.5,0.5-0.2,1.4,0.2,1.4c1.9-1.2,3.1-4.1,2.6-7.2C566,382.8,563.3,379.9,560.5,380.3z"/>
		<path class="st23" d="M566.5,379.4c-2.8,0.4-4.6,3.8-4.1,7.7l0.9-0.1c-0.4-3.2,1.1-5.9,3.3-6.2c2.3-0.3,4.4,2,4.9,5.2
			c0.3,2.5-0.5,4.7-1.9,5.7c-0.5,0.5-0.2,1.4,0.2,1.4c1.9-1.2,3.1-4.1,2.6-7.2C571.9,381.9,569.2,379.1,566.5,379.4z"/>
		<path class="st24" d="M572.4,378.5c-2.8,0.4-4.6,3.8-4.1,7.7l0.9-0.1c-0.4-3.2,1.1-5.9,3.3-6.2c2.3-0.3,4.4,2,4.9,5.2
			c0.3,2.5-0.5,4.7-1.9,5.7c-0.5,0.5-0.2,1.4,0.2,1.4c1.9-1.2,3.1-4.1,2.6-7.2C577.8,381,575.2,378.1,572.4,378.5z"/>
		<path class="st23" d="M578.3,377.6c-2.8,0.4-4.6,3.8-4.1,7.7l0.9-0.1c-0.4-3.2,1.1-5.9,3.3-6.2c2.3-0.3,4.4,2,4.9,5.2
			c0.3,2.5-0.5,4.7-1.9,5.7c-0.5,0.5-0.2,1.4,0.2,1.4c1.9-1.2,3.1-4.1,2.6-7.2C583.8,380.1,581.1,377.2,578.3,377.6z"/>
		<path class="st24" d="M584.3,376.7c-2.8,0.4-4.6,3.8-4.1,7.7l0.9-0.1c-0.4-3.2,1.1-5.9,3.3-6.2c2.3-0.3,4.4,2,4.9,5.2
			c0.3,2.5-0.5,4.7-1.9,5.7c-0.5,0.5-0.2,1.4,0.2,1.4c1.9-1.2,3.1-4.1,2.6-7.2C589.7,379.2,587.1,376.3,584.3,376.7z"/>
		<path class="st23" d="M590.2,375.8c-2.8,0.4-4.6,3.8-4.1,7.7l0.9-0.1c-0.4-3.2,1.1-5.9,3.3-6.2c2.3-0.3,4.4,2,4.9,5.2
			c0.3,2.5-0.5,4.7-1.9,5.7c-0.5,0.5-0.2,1.4,0.2,1.4c1.9-1.2,3.1-4.1,2.6-7.2C595.7,378.3,593,375.4,590.2,375.8z"/>
		<path class="st24" d="M596.2,374.9c-2.8,0.4-4.6,3.8-4.1,7.7l0.9-0.1c-0.4-3.2,1.1-5.9,3.3-6.2c2.3-0.3,4.4,2,4.9,5.2
			c0.3,2.5-0.5,4.7-1.9,5.7c-0.5,0.5-0.2,1.4,0.2,1.4c1.9-1.2,3.1-4.1,2.6-7.2C601.6,377.4,599,374.5,596.2,374.9z"/>
		<path class="st23" d="M602.1,374c-2.8,0.4-4.6,3.8-4.1,7.7l0.9-0.1c-0.4-3.2,1.1-5.9,3.3-6.2c2.3-0.3,4.4,2,4.9,5.2
			c0.3,2.5-0.5,4.7-1.9,5.7c-0.5,0.5-0.2,1.4,0.2,1.4c1.9-1.2,3.1-4.1,2.6-7.2C607.6,376.5,604.9,373.6,602.1,374z"/>
		<path class="st24" d="M608.1,373.1c-2.8,0.4-4.6,3.8-4.1,7.7l0.9-0.1c-0.4-3.2,1.1-5.9,3.3-6.2c2.3-0.3,4.4,2,4.9,5.2
			c0.3,2.5-0.5,4.7-1.9,5.7c-0.5,0.5-0.2,1.4,0.2,1.4c1.9-1.2,3.1-4.1,2.6-7.2C613.5,375.6,610.9,372.7,608.1,373.1z"/>
		<path class="st23" d="M614,372.2c-2.8,0.4-4.6,3.8-4.1,7.7l0.9-0.1c-0.4-3.2,1.1-5.9,3.3-6.2c2.3-0.3,4.4,2,4.9,5.2
			c0.3,2.5-0.5,4.7-1.9,5.7c-0.5,0.5-0.2,1.4,0.2,1.4c1.9-1.2,3.1-4.1,2.6-7.2C619.5,374.7,616.8,371.8,614,372.2z"/>
		<path class="st24" d="M620,371.3c-2.8,0.4-4.6,3.8-4.1,7.7l0.9-0.1c-0.4-3.2,1.1-5.9,3.3-6.2c2.3-0.3,4.4,2,4.9,5.2
			c0.3,2.5-0.5,4.7-1.9,5.7c-0.5,0.5-0.2,1.4,0.2,1.4c1.9-1.2,3.1-4.1,2.6-7.2C625.4,373.8,622.8,370.9,620,371.3z"/>
		<path class="st23" d="M625.9,370.4c-2.8,0.4-4.6,3.8-4.1,7.7l0.9-0.1c-0.4-3.2,1.1-5.9,3.3-6.2c2.3-0.3,4.4,2,4.9,5.2
			c0.3,2.5-0.5,4.7-1.9,5.7c-0.5,0.5-0.2,1.4,0.2,1.4c1.9-1.2,3.1-4.1,2.6-7.2C631.4,372.9,628.7,370,625.9,370.4z"/>
		<path class="st24" d="M631.9,369.5c-2.8,0.4-4.6,3.8-4.1,7.7l0.9-0.1c-0.4-3.2,1.1-5.9,3.3-6.2c2.3-0.3,4.4,2,4.9,5.2
			c0.3,2.5-0.5,4.7-1.9,5.7c-0.5,0.5-0.2,1.4,0.2,1.4c1.9-1.2,3.1-4.1,2.6-7.2C637.3,372,634.7,369.1,631.9,369.5z"/>
		<path class="st23" d="M637.8,368.6c-2.8,0.4-4.6,3.8-4.1,7.7l0.9-0.1c-0.4-3.2,1.1-5.9,3.3-6.2c2.3-0.3,4.4,2,4.9,5.2
			c0.3,2.5-0.5,4.7-1.9,5.7c-0.5,0.5-0.2,1.4,0.2,1.4c1.9-1.2,3.1-4.1,2.6-7.2C643.3,371.1,640.6,368.2,637.8,368.6z"/>
		<path class="st24" d="M643.8,367.7c-2.8,0.4-4.6,3.8-4.1,7.7l0.9-0.1c-0.4-3.2,1.1-5.9,3.3-6.2c2.3-0.3,4.4,2,4.9,5.2
			c0.3,2.5-0.5,4.7-1.9,5.7c-0.5,0.5-0.2,1.4,0.2,1.4c1.9-1.2,3.1-4.1,2.6-7.2C649.2,370.2,646.6,367.3,643.8,367.7z"/>
		<path class="st24" d="M530.8,392c-0.5-3.9-3.2-6.8-6-6.4c-2.8,0.4-4.6,3.8-4.1,7.8c0,0,0,0,0,0.1l0.9-0.1l0,0
			c-0.4-3.2,1-6,3.3-6.3s4.4,2,4.9,5.2c0.3,2.5-0.5,4.7-1.9,5.7c-0.5,0.5-0.2,1.4,0.2,1.4C530.1,398.1,531.2,395.2,530.8,392z"/>
	</g>
	<g id="Arm_Links">
		
			<linearGradient id="SVGID_13_" gradientUnits="userSpaceOnUse" x1="604.4008" y1="953.5156" x2="562.1275" y2="846.092" gradientTransform="matrix(1 0 0 -1 0 1446.439)">
			<stop  offset="0" style="stop-color:#EDBE9A"/>
			<stop  offset="1" style="stop-color:#D89A71"/>
		</linearGradient>
		<path class="st25" d="M673.2,547c0,0-12.6-13.6-20.7-18l-28-9c-10.8-8.3-31.6-27.7-31.6-27.7c-5.9-4.2-12.1-8.4-21.1-11.7
			l-11.6-7.5l-24,7.9l-31.3-0.8c0,0-11.3,4.4-7.6,15c-3.7,3.8-5.7,12.8-1.2,17.8c-3.9,5.2-2.5,13.1,2.5,15.8
			c-1.4,4.4-3.1,11.4,11.1,14.5c9.9,2.4,21.6,4.4,36.3,1.5c8.5-1.8,16-4.2,23.2-6.9l38.4,48.6c16.9,13.2,33.3,20,49.2,18.3
			c9.5-0.8,16.5-5.4,19.2-16.9C678.9,574.4,678.1,560.8,673.2,547z"/>
		
			<linearGradient id="SVGID_14_" gradientUnits="userSpaceOnUse" x1="534.2825" y1="981.6115" x2="523.9633" y2="926.2577" gradientTransform="matrix(1 0 0 -1 0 1446.439)">
			<stop  offset="0" style="stop-color:#EDBE9A"/>
			<stop  offset="1" style="stop-color:#D89A71"/>
		</linearGradient>
		<path class="st26" d="M526,482.6l-12.9,5.5c-8-1.1-11-4.5-8.2-10.7c5-2.9,10.8-7.5,16.9-13.1c7.3-1.5,14.6-1.6,21.8,0
			c5.2,1.5,10.8,4.7,16.6,8.7l-19.1,7.3L526,482.6z"/>
	</g>
	<g id="Kopf">
		
			<linearGradient id="SVGID_15_" gradientUnits="userSpaceOnUse" x1="400.851" y1="1322.1641" x2="782.2548" y2="1368.7761" gradientTransform="matrix(1 0 0 -1 0 1446.439)">
			<stop  offset="0" style="stop-color:#EDBE9A"/>
			<stop  offset="1" style="stop-color:#D89A71"/>
		</linearGradient>
		<path class="st27" d="M385.6,130.7l4.5-23.5l4.2-47.6c1.4-11.8,11-26.2,22.5-34.4c11.5-8.2,17.9-6,17.9-6s49.8,21.8,70,46.9
			c3.6,7.7,9.1,41.9,7,62.5c0.6,21.7-6.3,35.9-13.4,54.3c-8,14.3-16.7,23.9-23.7,27.7c-10.4,5.2-23.2,12.9-44.8,8.7
			c-12.2-2.9-22.7-12-30.1-26.1C389.5,178.9,385,157.9,385.6,130.7z"/>
		<g id="Ebene_30">
			
				<linearGradient id="SVGID_16_" gradientUnits="userSpaceOnUse" x1="454.6266" y1="1352.6674" x2="297.979" y2="1240.9735" gradientTransform="matrix(1 0 0 -1 0 1446.439)">
				<stop  offset="0" style="stop-color:#D33E20"/>
				<stop  offset="0.4263" style="stop-color:#D36922"/>
				<stop  offset="1" style="stop-color:#E8882A"/>
			</linearGradient>
			<path class="st28" d="M424.4,11c-5.2-1.9-12.6-1.1-15.7,0.7c-8.9,3.7-15.3,11.9-20.3,21.4s-4,27.9-12.5,37.4s-15.6,23.5-13,42.8
				c2.6,19.4-14.9,31.9-20.1,43.1c-5.2,11.2-4.2,20.8-2.3,32.3c2.9,17.8,2.6,21.8-1,31.4s-9.5,15-9.5,15s1.5,3.7,10.8,1.9
				s11.3,5.4,17.3,5.9c0,0,9.1-0.8,12.2-0.8s11.8,1.5,11.8,1.5l9.2,0.1l1.7,1.3c16,1.3,29.8-9.6,29.9-28.2
				c-24.4-10.9-37.7-51.9-33.6-95.4l3.5-15.5c1.9-14.9-0.1-26.8,2-42.7c4.2-22.3,17.2-37.8,33.3-43.5L424.4,11z"/>
			
				<linearGradient id="SVGID_17_" gradientUnits="userSpaceOnUse" x1="425.1412" y1="1451.0306" x2="561.4661" y2="1173.746" gradientTransform="matrix(1 0 0 -1 0 1446.439)">
				<stop  offset="0" style="stop-color:#D33E20"/>
				<stop  offset="0.4263" style="stop-color:#D36922"/>
				<stop  offset="1" style="stop-color:#E8882A"/>
			</linearGradient>
			<path class="st29" d="M424.4,11c7.9-14.3,43.1-11.9,62.4-7.9c19.3,4,41.7,16.2,56.4,29.8c6.3,5.7,16.3,16.3,18.4,31.5
				c2.3,19.1-3,20,10.2,41.1s-8.7,27.9,8.9,51.5c17.9,24,10.3,54.6-1.3,63.7c-1.4,34.2-27,44.5-36.9,45.9s-16.5-3.4-27.8-1.7
				s-16.7-1.5-25.2,1.7c-8.6,3.2-36,0-36,0s16.4-15.5,17.2-26.4c0.9-10.8,2.1-15.2,7.4-23.5c5.3-8.4,9.3-12.6,11.3-21.8
				s6.7-27.4,1.4-40.3c-2.3-16.2-4.3-2-2-50.5S438,24.4,438,24.4l-10.2-4.6L424.4,11z"/>
		</g>
	</g>
	<g id="Gesicht">
		
			<ellipse transform="matrix(0.1004 -0.9949 0.9949 0.1004 310.8797 553.4755)" class="st6" cx="461.5" cy="104.8" rx="8" ry="5.7"/>
		
			<ellipse transform="matrix(0.1004 -0.9949 0.9949 0.1004 256.4416 495.3503)" class="st6" cx="402.1" cy="105.9" rx="7.3" ry="5.3"/>
		<path class="st6" d="M418,112.7c-12.4-16.2-18.7-17.3-24.9-0.9l-8.4-5l6.8,0.9C398.1,87.8,413.4,99.3,418,112.7z"/>
		<path class="st6" d="M450,109.3c6.7-14.5,15.3-14.7,31.3-1l14.5-8.4l-13.6,2.8C464,89.9,453.5,91,450,109.3z"/>
		<path class="st30" d="M445.8,88.1l2.1-5.9c0,0,13.4-3.9,19.4-3.2c5.9,0.7,16.5,3.5,20.1,7.1c0.4,1.9,1.1,3.9,1.3,5.8
			c-6.5-4-16.3-6.8-21.5-7.3C462.1,84.1,445.8,88.1,445.8,88.1z"/>
		<path class="st30" d="M416.5,89.8l-2.2-5.7c-6.6-1.1-10.9-1.5-14.2-1.5s-5.7,1.9-6.3,2.7v5.3c1.3-1.2,5.1-2.4,6.4-2.7
			C403.7,87.9,408.7,88.1,416.5,89.8z"/>
		
			<linearGradient id="SVGID_18_" gradientUnits="userSpaceOnUse" x1="415.0531" y1="1269.0502" x2="460.5531" y2="1269.0502" gradientTransform="matrix(1 0 0 -1 0 1446.439)">
			<stop  offset="0" style="stop-color:#E29986"/>
			<stop  offset="1" style="stop-color:#E29986"/>
		</linearGradient>
		<path class="st31" d="M460.5,169.3c-8,7.8-16.5,16.8-29.9,16.2c-7.3-1.1-12.5-5.8-15.6-13.2C429.5,173.2,444.7,172,460.5,169.3z"
			/>
		
			<linearGradient id="SVGID_19_" gradientUnits="userSpaceOnUse" x1="437.4599" y1="1280.6477" x2="438.1054" y2="1271.1993" gradientTransform="matrix(1 0 0 -1 0 1446.439)">
			<stop  offset="0" style="stop-color:#C67961"/>
			<stop  offset="1" style="stop-color:#D68983"/>
		</linearGradient>
		<path class="st32" d="M432.2,171.9c5.1-5.2,19-4.5,28.3-2.6c-7.8,2.5-15.1,5.4-22.6,5.4l-5.7,1.9l-4.3-1.3
			c-5.1,0.4-9.2-1.5-12.8-3.1C421.2,169.1,426.9,167.7,432.2,171.9z"/>
		
			<linearGradient id="SVGID_20_" gradientUnits="userSpaceOnUse" x1="417.196" y1="1322.9594" x2="467.1068" y2="1303.8159" gradientTransform="matrix(1 0 0 -1 0 1446.439)">
			<stop  offset="0" style="stop-color:#E5A693"/>
			<stop  offset="1" style="stop-color:#E5A693"/>
		</linearGradient>
		<path class="st33" d="M445,142.2l-7.7-12.4c-0.2-0.4-0.4-0.8-0.4-1.2c0,0-4.1-25.7-7.2-24.2c-1.7,0.8-6.8,24.6-6.8,24.6
			c-0.1,0.3-0.2,0.6-0.3,0.9L416,142c-0.7,1.3-0.3,3,0.9,3.7l8.7,5.1c0.5,0.3,1.1,0.4,1.7,0.2l16.6-4.9
			C445.2,145.8,445.9,143.7,445,142.2z"/>
		<path class="st30" d="M465.5,93.2"/>
		<path class="st30" d="M326.6,94.2"/>
	</g>
</g>
</svg>
