<?xml version="1.0" encoding="utf-8"?>
<!-- Generator: Adobe Illustrator 24.2.0, SVG Export Plug-In . SVG Version: 6.00 Build 0)  -->
<svg version="1.1" id="Illustration_2_" xmlns="http://www.w3.org/2000/svg" xmlns:xlink="http://www.w3.org/1999/xlink" x="0px"
	 y="0px" viewBox="0 0 940.8 715.8" style="enable-background:new 0 0 940.8 715.8;" xml:space="preserve">
<style type="text/css">
	.st0{fill:#16748E;}
	.st1{fill:#0F4D63;}
	.st2{fill:#E0E0E0;}
	.st3{fill:#C6C6C6;}
	.st4{fill:#EDEDED;}
	.st5{fill:url(#SVGID_1_);}
	.st6{fill:url(#SVGID_2_);}
	.st7{fill:#EDBE9A;}
	.st8{fill:#0B313A;}
	.st9{fill:url(#SVGID_3_);}
	.st10{fill:url(#SVGID_4_);}
	.st11{fill:url(#SVGID_5_);}
	.st12{fill:#DBDBDB;}
	.st13{fill:url(#SVGID_6_);}
	.st14{fill:url(#SVGID_7_);}
	.st15{fill:#AFAFAF;}
	.st16{fill:#939393;}
	.st17{fill:#9B9B9B;}
	.st18{fill:url(#SVGID_8_);}
	.st19{fill:url(#SVGID_9_);}
	.st20{fill:url(#SVGID_10_);}
	.st21{fill:url(#SVGID_11_);}
	.st22{fill:url(#SVGID_12_);}
	.st23{fill:#CECAB6;}
	.st24{display:none;fill:#939189;}
	.st25{fill:#939189;}
	.st26{fill:url(#SVGID_13_);}
	.st27{fill:url(#SVGID_14_);}
	.st28{fill:url(#SVGID_15_);}
	.st29{fill:url(#SVGID_16_);}
	.st30{fill:url(#SVGID_17_);}
	.st31{fill:#8E4413;}
	.st32{fill:url(#SVGID_18_);}
	.st33{fill:url(#SVGID_19_);}
	.st34{fill:url(#SVGID_20_);}
	.st35{fill:url(#Fuß_1_);}
	.st36{fill:url(#Bein_1_);}
	.st37{fill:url(#Ramen_1_);}
	.st38{fill:#FFFFFF;}
	.st39{fill:#2B2B2B;}
	.st40{fill:url(#SVGID_21_);}
	.st41{fill:url(#SVGID_22_);}
	.st42{fill:url(#SVGID_23_);}
	.st43{fill:url(#SVGID_24_);}
	.st44{fill:url(#SVGID_25_);}
	.st45{fill:url(#SVGID_26_);}
	.st46{fill:url(#SVGID_27_);}
	.st47{fill:url(#SVGID_28_);}
	.st48{fill:url(#SVGID_29_);}
	.st49{fill:url(#SVGID_30_);}
	.st50{fill:url(#SVGID_31_);}
	.st51{fill:url(#SVGID_32_);}
	.st52{fill:url(#SVGID_33_);}
	.st53{fill:url(#SVGID_34_);}
	.st54{fill:url(#SVGID_35_);}
	.st55{fill:url(#SVGID_36_);}
	.st56{fill:url(#SVGID_37_);}
	.st57{fill:url(#SVGID_38_);}
	.st58{fill:url(#SVGID_39_);}
	.st59{fill:url(#SVGID_40_);}
	.st60{clip-path:url(#SVGID_42_);fill:#0F4D63;}
	.st61{clip-path:url(#SVGID_44_);}
	.st62{clip-path:url(#SVGID_46_);}
	.st63{clip-path:url(#SVGID_48_);fill:#0F4D63;}
	.st64{fill:#555555;}
	.st65{fill:#E1E1E1;}
	.st66{display:none;fill:#2B2B2B;}
	.st67{fill:none;}
	.st68{enable-background:new    ;}
	.st69{fill:url(#Innen_2_);}
</style>
<g id="BG_1_">
	<path class="st0" d="M939.6,372c-0.1,36.8-11.9,64.2-16.2,73.3c0,0-23.5,50-65.8,72.5l-0.1,0.1c-1.2,0.6-8.4,4.5-15.1,7.7
		c-25.5,12.2-72.8,30.9-131.2,32.6c-29.4,0.9-67.5-6.5-143.7-21.4c-59-11.5-90.1-20.3-129.4-7.7c-11,3.5-14.2,6-26.6,12.2
		c0,0-10.3,5.7-21.7,10.1c-22.7,8.8-46.6-33.5-79.7-38.5c-37.8-5.7-42.6,43.9-107.7,60.3c-4.3,1.1-72.4,17.3-114.7-19l0,0
		c-15.7-11.4-54.5-39.6-68.8-88.7c-26.4-90.7,45.1-204.2,132-247c63.7-31.3,95-5.1,211.8-47.8c8.8-3.2,48.5-17.9,96.5-44.5
		C573.5,62.8,585,15.6,657.2,3.1C671.6,0.6,725-7,765.6,17.7c9.3,5.6,15.9,11.8,20.9,18.4c32.7,43.5,42.5,89.7,49.9,121.3
		C863.1,271.2,939.9,277.7,939.6,372z"/>
	<path class="st1" d="M8,345.6c-23.4-70.8,11.5-136.2,15.3-142.9c36.2-65.4,100.1-85.8,118.6-90.8c36.3-9.9,65.8-6.1,97.2-2.1
		c48,6.1,53.3,16.4,144,40c55.8,14.6,83.5,18.4,111.3,5.9c17.4-7.8,17.8-14.3,36.3-25.6c52.9-32.3,115.8-19.5,121.8-18.2
		c67.7,14.8,103.1,73.8,127.2,114.2c23.9,40,74.5,127,40.5,220.2c-37.3,102-153.2,148.2-232.9,147.4c-40.7-0.4-38.2-12.7-80.1-11
		c-61.4,2.6-83.1,29.7-193.4,67.6c-55.3,19-74.8,20.8-95.1,17.1c-6.3-1.1-53.4-10.5-83.3-51.3c-40.2-54.8-8.1-86.7-35.3-149.6
		C71.5,400,28.8,408.6,8,345.6z"/>
</g>
<g id="Poster_1_">
	<ellipse id="Schatten_4_" class="st2" cx="620.2" cy="635.5" rx="228" ry="8.7"/>
	<rect id="Poster" x="398.9" y="23.2" class="st3" width="442.6" height="612.3"/>
	<g id="Logo_3_">
		<path class="st4" d="M841.5,635.5h-44.3c1.1-4.5,1.7-9.7,1.7-15.3c0-9.4-2.3-16.4-7-20.9s-11.9-6.9-21.6-6.9H541.5v-46.9H769
			c24.5,0,42.6,5.6,54.5,16.9c11.9,11.3,17.9,28.4,17.9,51.4C841.5,622.2,841.5,635.5,841.5,635.5z"/>
		<path class="st4" d="M541.5,410.3v-128h42.9v81.1h79.3V299h42.9v64.4h92.1v-81.1h42.9v128H541.5z"/>
		<path class="st4" d="M541.5,249.7v-46.9h300v46.9L541.5,249.7L541.5,249.7z"/>
		<path class="st4" d="M541.5,170.4v-58.9l179.6-45.7V65H541.5V23.2h300v48.2l-219.1,56.3v0.7h219.1v41.8h-300V170.4z"/>
		<polygon class="st4" points="541.5,489.7 663.7,489.7 663.7,538.2 706.5,538.2 706.5,489.7 841.5,489.7 841.5,442.7 541.5,442.7 
					"/>
	</g>
	<g id="Figur_1_">
		<g id="Beine_Kopie">
			
				<linearGradient id="SVGID_1_" gradientUnits="userSpaceOnUse" x1="542.9834" y1="156.5058" x2="544.2062" y2="163.4269" gradientTransform="matrix(1 0 0 -1 0 715.8898)">
				<stop  offset="0" style="stop-color:#EDBE9A"/>
				<stop  offset="0.6882" style="stop-color:#E5AB86"/>
				<stop  offset="1" style="stop-color:#E1A17C"/>
			</linearGradient>
			<path class="st5" d="M534.9,548.6c0,0,0.1,4.8,0.1,6.8l-1.6,5.9h19.1l0.3-4.8c0.1-1.1,0.7-2.3,1.3-3.5L534.9,548.6z"/>
			
				<linearGradient id="SVGID_2_" gradientUnits="userSpaceOnUse" x1="596.5062" y1="194.2059" x2="585.3532" y2="205.6247" gradientTransform="matrix(1 0 0 -1 0 715.8898)">
				<stop  offset="0" style="stop-color:#EDBE9A"/>
				<stop  offset="0.6882" style="stop-color:#E5AB86"/>
				<stop  offset="1" style="stop-color:#E1A17C"/>
			</linearGradient>
			<path class="st6" d="M579,519c2.3,2.8,3.6,5.7,4.3,8.6c2,1.4,8-0.2,15.2-3.5l2.2-12.3l-5.9-11.3l-4.5-0.4L579,519z"/>
			<path class="st7" d="M595.9,492.3"/>
		</g>
		<g id="Schuh_links_Kopie">
			<path class="st8" d="M582,528.5c-1-5.1,7.9-5.3,11-2.5l-0.7,13.8l1.1,20.7l-8.8,0.3c0.9-3.5,1-14.8,1-14.8s-0.3-8.9-2.6-14.5
				C582.6,530,582,528.5,582,528.5z"/>
			<path class="st1" d="M588.7,529.8c0,0,12.8-12.7,6-29.3h-0.5c0.1-0.4,0.3-0.7,0.6-0.9c4.6-0.6,8.9-0.8,12,0.4
				c4,5.2,2.9,8.1,1.5,15.8c-2.4,13-2.9,23.8-3,34.7c0.2,7.3-1.2,12.5-4.4,16.2l-8.2-5.8C593.2,552.1,590.4,531.6,588.7,529.8z"/>
			<path class="st1" d="M583.6,561.5c0,0,0.7-3,0.8-4.3c0.1,0,1.7-17.9-1.8-25.6l0.4-0.4c2.7,5.3,2.9,15.4,2.8,26.2
				c-0.1,1-0.2,2.5-0.4,3L583.6,561.5z"/>
			
				<linearGradient id="SVGID_3_" gradientUnits="userSpaceOnUse" x1="592.3292" y1="156.6443" x2="591.9008" y2="136.0974" gradientTransform="matrix(1 0 0 -1 0 715.8898)">
				<stop  offset="0" style="stop-color:#C6C6C6"/>
				<stop  offset="0.3618" style="stop-color:#B2B2B2"/>
				<stop  offset="1" style="stop-color:#878787"/>
			</linearGradient>
			<path class="st9" d="M601.2,565.2c-7.5-6.6-13.6-7.3-17.8-3.6c-0.4,4.3-0.2,7.6,1.2,10.8C589.2,578,596.9,577.6,601.2,565.2z"/>
			<path class="st3" d="M583.2,565.7c0.1,3.2,0.3,6.3,1.4,8.2c1.4,2.3,4.6,3.6,6.4,3.6c1.9,0,2.8-0.2,4.1-0.7
				c2.7-1.2,5.6-4.5,6.5-5.9c1-1.4,2.4-4.3,2.4-4.3c2.5-6.8,4.2-18.1,5.5-31.7c0.8-7.4,1.9-15.1,3.4-23.2c0.5-4.8-0.3-7.6-2.4-10.9
				l-4.4-1.4c-0.2,0-0.3,0-0.5,0.1l0.3,0.1c2.4,3.4,3.4,8.4,3.1,11.3c-0.3,2.8-2.6,15.3-3.8,23c-1.2,13.7-1.5,28.8-6.6,35.6
				c-1.9,2.3-3.6,3.8-5.8,5c-3.3,1.5-6.2,1-8.4-3C583.7,570,583.2,565.7,583.2,565.7z"/>
			<path class="st1" d="M583.2,560.9"/>
			<path class="st1" d="M583.2,560.9"/>
			<path class="st1" d="M585.5,559.7"/>
		</g>
		<g id="Schuh_rechts_Kopie">
			<path class="st8" d="M544.2,585.1l13.5-1.7l-5.9-23.3c-4.7-6-8.5-5-14.2-0.1L544.2,585.1z"/>
			<path class="st1" d="M542.4,589.2l4-6.2c-1.1-3.6-2.2-15-2.2-15c-0.7-3.4-1.6-6.6-2.9-8.8c-2.8,0.1-5-0.2-7.1-1V558
				c-0.1,0-0.3,0.1-0.3,0.1l-1.8,4.5c-2,4.6-2.7,7.8-2.2,9.7c0,0,3.9,5.8,6.9,8.4l1.6,3.2l1.1,3.9L542.4,589.2z"/>
			<path class="st1" d="M563.2,590.1l1.4-5c-0.6-1.4-1.3-2.8-2.3-3.9c-2.5-2.5-4.5-5.2-5.8-8.3l-3.4-10.5l-0.2-3
				c-0.1-0.1-0.2-0.1-0.3-0.2v0.2c-0.8,0.5-1.7,0.5-2.7,0.4c0,0,0,5.6,0.4,8.2c0.9,3.6,2,6.8,3.2,9.6
				C554.9,580.6,561.5,588.7,563.2,590.1z"/>
			
				<linearGradient id="SVGID_4_" gradientUnits="userSpaceOnUse" x1="550.6777" y1="132.9824" x2="556.8846" y2="114.7334" gradientTransform="matrix(1 0 0 -1 0 715.8898)">
				<stop  offset="0" style="stop-color:#C6C6C6"/>
				<stop  offset="0.3618" style="stop-color:#B2B2B2"/>
				<stop  offset="1" style="stop-color:#878787"/>
			</linearGradient>
			<path class="st10" d="M564.5,584.7c-3-4.8-16.9-8.8-25.1,3.6c0.6,6.2,17,7.7,18.6,4.4C562.6,591.2,564.7,588.6,564.5,584.7z"/>
			
				<linearGradient id="SVGID_5_" gradientUnits="userSpaceOnUse" x1="529.1803" y1="131.9895" x2="565.3514" y2="131.9895" gradientTransform="matrix(1 0 0 -1 0 715.8898)">
				<stop  offset="0" style="stop-color:#C6C6C6"/>
				<stop  offset="0.3888" style="stop-color:#B2B2B2"/>
				<stop  offset="1" style="stop-color:#8C8C8C"/>
			</linearGradient>
			<path class="st11" d="M529.3,571.9c-0.3,2.4,0,3.7,0.5,5.5c4.2,3.9,5.7,8.2,7.1,12.2l3.9,4.4c8.5,5,23.2,1.9,24.4-4
				c0.3-1.8-0.4-5-0.4-5c-1.3-2-1.8-3.1-2.6-3.9c0.9,1.2,1.6,2.3,1.9,3.5c0.2,7.8-16.4,10.2-24.3,2.9c-0.8-2.7-1.7-5.1-3-6.8
				l-6.9-8.9l-0.1-0.5L529.3,571.9z"/>
			<path class="st12" d="M565.4,586.2"/>
		</g>
		<g id="Hose_Kopie">
			
				<linearGradient id="SVGID_6_" gradientUnits="userSpaceOnUse" x1="527.9612" y1="152.8448" x2="588.8645" y2="427.5506" gradientTransform="matrix(1 0 0 -1 0 715.8898)">
				<stop  offset="0" style="stop-color:#9D9D9C"/>
				<stop  offset="0.2147" style="stop-color:#898989"/>
				<stop  offset="0.2382" style="stop-color:#878787"/>
				<stop  offset="0.5825" style="stop-color:#9B9B9A"/>
				<stop  offset="0.6201" style="stop-color:#9D9D9C"/>
				<stop  offset="0.8712" style="stop-color:#AFAFAF"/>
				<stop  offset="1" style="stop-color:#9D9D9C"/>
			</linearGradient>
			<path class="st13" d="M556.4,275.3l35.5,5.1c3.1,9,6,17.4,7.7,22.3c0.4,3.4,0.4,6.2,0,8.6l2.7,12.1c0.5,4-1.8,19.6-3.3,32
				c-4.8,35.4-9.3,68.7-12.2,90.5c-2.4,16.4-4.9,31.6-7.4,44.6l-7.9,28.1c-3.2,8.9-6.5,17.2-10.2,24.3c-5.9-0.2-11.8-0.8-17.6-2.3
				c-3.1-0.9-5.9-1.9-8-3c0.2-4.3,0.3-8.6,0.7-13c1.2-5.1,4-11.3,7.3-18.5c-0.3-9.6,0.5-19,2.7-28.5l2.4-86.5l-1-43.1L556.4,275.3z"
				/>
			
				<linearGradient id="SVGID_7_" gradientUnits="userSpaceOnUse" x1="597.4627" y1="169.018" x2="501.895" y2="454.0443" gradientTransform="matrix(1 0 0 -1 0 715.8898)">
				<stop  offset="0" style="stop-color:#878787"/>
				<stop  offset="0.1536" style="stop-color:#9B9B9B"/>
				<stop  offset="0.2867" style="stop-color:#AFAFAF"/>
				<stop  offset="0.781" style="stop-color:#AFAFAF"/>
				<stop  offset="1" style="stop-color:#878787"/>
			</linearGradient>
			<path class="st14" d="M556.4,275.3l-60.7,5.9l-1.7,32.7l0.4,9.1c-0.7,4.3-1.1,8.3-0.9,11.3c0.3,2.5,2.2,5.9,2.4,7.8
				s-0.4,9.3-0.3,11.1c0.4,3.9-0.1,9.4,1.6,12.6c1.1,3.8,12.2,59.8,12.2,59.8l1.9,13.4c1.4,3.1,3.6,5.6,6,8c0.7,2.6,1.2,4.9,1.8,7
				c1,3.5,10.2,12.6,16.5,19.7l13,18.8l14.6,19.4l3.3,2.7l4.2,2h4.6c5.8-3.5,11.5-7.1,13.5-12.4c1.4-3.1,0.4-7-0.9-11.1l-5.8-6.4
				l-8.1-16.8L561.8,448c-0.7-0.9-3.6-2.7-3.6-2.7c-0.4-4.8-2-6.6-5-10.3c0,0-3.4-26.2-3.7-39.1l1.8-31.4l0.8-25.5
				c-0.1-1,7.3-12.5,7.3-12.5s1.3-12.7,1.2-20.7c-0.3-6.5-1.3-14.3-2.6-22.6L556.4,275.3z"/>
			<path class="st15" d="M534.6,537.5c0.1-0.1,0.7-0.6,1-0.5v0.5c0,0,5.1,1.9,8,2.7c5.6,1.2,17.5,2.6,17.5,2.6l0.4-0.8
				c0.5,0.4,0.7,1,0.8,1.1l-4,10.4c0,0-3.7,0.9-5.2,0.7c-4.1-0.5-8.3-0.9-12.6-1.2c-2.7-0.6-6.6-2.5-6.6-2.5s-1-0.8-1-1.6
				C533.2,544.7,534.6,537.5,534.6,537.5z"/>
			<path class="st15" d="M567.3,514.8l-1.5-1.1c-0.5,0.9-0.4,1.9,0,2.8l7.1,7.9c2.1,0.3,4.3-0.3,6.6-1c3.4-1.7,6.8-4.5,10.3-7.9
				c2-3.6,3.5-7.3,4.3-11.4c-0.1-2.7-0.3-5.2-0.8-6.8l-4.5-5.5c-0.6-0.3-1.2-0.4-1.7-0.3l0.6,0.7c0.1,2.6,0.1,5.4-0.3,7.9
				c-0.4,2.5-2.1,4.8-3.9,7.5c-3.2,3.2-6.5,6-10,7.4C571.6,515.5,569.5,515.3,567.3,514.8z"/>
			<path class="st16" d="M552.2,339c1.5-0.1,7.2-10.7,7.2-10.9c0,0,1.6-15.5,1.3-24.6c-0.7-8.5-1.6-16.3-3-22.5l-7.8,0.7
				c1.2,8.8,2.3,17.1,3.1,24.2c0.4,8.1,0.3,16.3,0,23.8L552.2,339z"/>
			<path class="st16" d="M494,313.8c7.5,1,10.8-11.3,13.6-25.3l4.7-0.9c-4.1,21.3-7.6,31-18.1,30.5L494,313.8z"/>
			<path class="st16" d="M599.6,311.3l-3.7-8.7c-2.9-7.2-6.4-13.7-11.3-19.1l8,3.7l4.4,7.5l2.7,8C600,305.7,600,308.5,599.6,311.3z"
				/>
			<path class="st17" d="M475.7,301.4"/>
		</g>
		<g id="Oberarm_Links_Kopie">
			
				<linearGradient id="SVGID_8_" gradientUnits="userSpaceOnUse" x1="612.2959" y1="503.0146" x2="607.3087" y2="473.6476" gradientTransform="matrix(1 0 0 -1 0 715.8898)">
				<stop  offset="0" style="stop-color:#EDBE9A"/>
				<stop  offset="0.1773" style="stop-color:#EBBA95"/>
				<stop  offset="0.6603" style="stop-color:#E1A981"/>
				<stop  offset="1" style="stop-color:#D89A71"/>
			</linearGradient>
			<polygon class="st18" points="603.4,239.1 620.7,247.7 607.8,188.6 598.5,209.8 			"/>
		</g>
		<g id="Hals_Kopie">
			
				<linearGradient id="SVGID_9_" gradientUnits="userSpaceOnUse" x1="541.3282" y1="556.9138" x2="541.438" y2="599.4302" gradientTransform="matrix(1 0 0 -1 0 715.8898)">
				<stop  offset="0" style="stop-color:#EDBE9A"/>
				<stop  offset="1" style="stop-color:#D89A71"/>
			</linearGradient>
			<path class="st19" d="M504,144.2l21.2-1.3c5.4-0.4,8.2-4,9-11.3l27.8-7.7c-1.5,8.1,0.2,19.5,1.6,22.7c2.6,5.8,8,8.4,15.1,10.3
				L557.4,179l-30.7-11.7L504,144.2z"/>
		</g>
		<g id="Arm_Rechts_Kopie">
			
				<linearGradient id="SVGID_10_" gradientUnits="userSpaceOnUse" x1="490.0617" y1="474.5458" x2="504.3553" y2="506.2392" gradientTransform="matrix(1 0 0 -1 0 715.8898)">
				<stop  offset="0" style="stop-color:#EDBE9A"/>
				<stop  offset="1" style="stop-color:#D89A71"/>
			</linearGradient>
			<path class="st20" d="M507.3,289.5c0,0-10.1-7.4-13.8-8.8c-6.4-11.3-10.3-50.8-10.3-50.8c-0.3-1.7-0.1-3.5,0.8-5.1
				c0,0,15.5-35.5,25.7-58.1c2.1-2.4,3.4-5.5,3.4-8.9c0-7.4-5.3-13.5-12.6-12.4c-5.5,0.8-11.7,4.4-13.6,10.1
				c-8.5,20.5-18.8,40.8-24.6,61.7c-0.5,4-0.5,7.6,0,10.4c0,0,7.8,44.1,17.4,59.4c0.7,2,1.1,3.9,1.6,5.8c2.2,7,12.3,21.7,12.7,21
				C502,314.6,504.5,301.7,507.3,289.5z"/>
		</g>
		<g id="Tshirt_Kopie">
			
				<linearGradient id="SVGID_11_" gradientUnits="userSpaceOnUse" x1="540.1644" y1="577.2021" x2="543.7809" y2="414.2859" gradientTransform="matrix(1 0 0 -1 0 715.8898)">
				<stop  offset="0" style="stop-color:#3C3C3B"/>
				<stop  offset="1" style="stop-color:#161616"/>
			</linearGradient>
			<path class="st21" d="M487.3,153.5c0,0-16.6,28.6-23.2,42.8c7.6,7.8,17.9,12.9,28.6,15.1l3.7-8c1.2,10.1,1,20.9-0.2,32.3
				c-0.4,8.6-5.8,36.9-5.8,36.9c0.8,3.1,1.8,5.8,3.1,8.2c4.2,2.2,8.9,5.2,13.8,8.8c0,0,12-2.9,14.9-3.5c6.7-1.3,14.1-2.2,22.1-2.9
				c10.1-1,20.6-1,31.8,0.2c5.6,0.3,11.1,1.7,16.4,4l4.2,7.1c0.5-0.7,1.3-5.1,1-8.1c-0.6-4.2-0.2-7.2-2.1-12.2
				c-1.2-3.6-1.1-8.8-1.2-14.9l-1.8-29.5l2.9-7.3l1.7-6.4l-1.7,11.3c9.2,2.1,24.1-2.2,23.9-3.4c-7.4-23.9-13.8-55.2-24.2-61.2
				c-7.1-3.2-24.2-8.9-24.2-8.9c-0.4,0-0.7,0.1-1,0.2c0.2,0.1,0.4,0.2,0.6,0.3c-5.5,10.9-19.7,14.5-27.9,13.2
				c-8.2-1.2-20-9.3-19.8-24.4h0.6c-0.2-0.2-0.4-0.3-0.6-0.5l-3.2-0.1L504,144C495.9,145.3,490.4,148.3,487.3,153.5z"/>
		</g>
		<g id="Block_Kopie">
			
				<linearGradient id="SVGID_12_" gradientUnits="userSpaceOnUse" x1="590.9282" y1="527.8821" x2="586.3215" y2="476.3546" gradientTransform="matrix(1 0 0 -1 0 715.8898)">
				<stop  offset="0" style="stop-color:#F6F6F6"/>
				<stop  offset="1" style="stop-color:#D6D6D6"/>
			</linearGradient>
			<polygon class="st22" points="561.4,270 605,259.4 613.1,188.3 569.1,195 			"/>
			<polygon class="st23" points="560,269.4 561.4,270 569.1,195 567.6,194.5 			"/>
			<polygon class="st23" points="567.6,194.5 569.1,195 613.1,188.3 610.9,187.9 			"/>
			<path class="st24" d="M146.1,187.4c-1,0.1-1.6,1.3-1.4,2.7h0.3c-0.1-1.1,0.4-2.1,1.1-2.2c0.8-0.1,1.5,0.7,1.7,1.8
				c0.1,0.8-0.2,1.6-0.7,2c-0.2,0.2-0.1,0.5,0.1,0.5c0.7-0.4,1.1-1.4,0.9-2.5C148,188.3,147.1,187.3,146.1,187.4z"/>
			<path class="st25" d="M573.4,191.2c-1,0.1-1.6,1.3-1.4,2.7h0.3c-0.1-1.1,0.4-2.1,1.1-2.2c0.8-0.1,1.5,0.7,1.7,1.8
				c0.1,0.8-0.2,1.6-0.7,2c-0.2,0.2-0.1,0.5,0.1,0.5c0.7-0.4,1.1-1.4,0.9-2.5C575.3,192,574.4,191,573.4,191.2z"/>
			<path class="st24" d="M150.3,186.8c-1,0.1-1.6,1.3-1.4,2.7h0.3c-0.1-1.1,0.4-2.1,1.1-2.2c0.8-0.1,1.5,0.7,1.7,1.8
				c0.1,0.8-0.2,1.6-0.7,2c-0.2,0.2-0.1,0.5,0.1,0.5c0.7-0.4,1.1-1.4,0.9-2.5C152.1,187.7,151.2,186.7,150.3,186.8z"/>
			<path class="st25" d="M577.6,190.5c-1,0.1-1.6,1.3-1.4,2.7h0.3c-0.1-1.1,0.4-2.1,1.1-2.2c0.8-0.1,1.5,0.7,1.7,1.8
				c0.1,0.8-0.2,1.6-0.7,2c-0.2,0.2-0.1,0.5,0.1,0.5c0.7-0.4,1.1-1.4,0.9-2.5C579.4,191.4,578.5,190.4,577.6,190.5z"/>
			<path class="st24" d="M154.4,186.2c-1,0.1-1.6,1.3-1.4,2.7h0.3c-0.1-1.1,0.4-2.1,1.1-2.2c0.8-0.1,1.5,0.7,1.7,1.8
				c0.1,0.8-0.2,1.6-0.7,2c-0.2,0.2-0.1,0.5,0.1,0.5c0.7-0.4,1.1-1.4,0.9-2.5C156.3,187,155.3,186.1,154.4,186.2z"/>
			<path class="st25" d="M581.7,189.9c-1,0.1-1.6,1.3-1.4,2.7h0.3c-0.1-1.1,0.4-2.1,1.1-2.2c0.8-0.1,1.5,0.7,1.7,1.8
				c0.1,0.8-0.2,1.6-0.7,2c-0.2,0.2-0.1,0.5,0.1,0.5c0.7-0.4,1.1-1.4,0.9-2.5C583.6,190.8,582.6,189.8,581.7,189.9z"/>
			<path class="st24" d="M158.5,185.6c-1,0.1-1.6,1.3-1.4,2.7h0.3c-0.1-1.1,0.4-2.1,1.1-2.2c0.8-0.1,1.5,0.7,1.7,1.8
				c0.1,0.8-0.2,1.6-0.7,2c-0.2,0.2-0.1,0.5,0.1,0.5c0.7-0.4,1.1-1.4,0.9-2.5C160.4,186.4,159.5,185.4,158.5,185.6z"/>
			<path class="st25" d="M585.8,189.3c-1,0.1-1.6,1.3-1.4,2.7h0.3c-0.1-1.1,0.4-2.1,1.1-2.2c0.8-0.1,1.5,0.7,1.7,1.8
				c0.1,0.8-0.2,1.6-0.7,2c-0.2,0.2-0.1,0.5,0.1,0.5c0.7-0.4,1.1-1.4,0.9-2.5C587.7,190.1,586.8,189.2,585.8,189.3z"/>
			<path class="st24" d="M162.6,184.9c-1,0.1-1.6,1.3-1.4,2.7h0.3c-0.1-1.1,0.4-2.1,1.1-2.2c0.8-0.1,1.5,0.7,1.7,1.8
				c0.1,0.8-0.2,1.6-0.7,2c-0.2,0.2-0.1,0.5,0.1,0.5c0.7-0.4,1.1-1.4,0.9-2.5C164.5,185.8,163.6,184.8,162.6,184.9z"/>
			<path class="st25" d="M589.9,188.7c-1,0.1-1.6,1.3-1.4,2.7h0.3c-0.1-1.1,0.4-2.1,1.1-2.2c0.8-0.1,1.5,0.7,1.7,1.8
				c0.1,0.8-0.2,1.6-0.7,2c-0.2,0.2-0.1,0.5,0.1,0.5c0.7-0.4,1.1-1.4,0.9-2.5C591.8,189.5,590.9,188.5,589.9,188.7z"/>
			<path class="st24" d="M166.8,184.3c-1,0.1-1.6,1.3-1.4,2.7h0.3c-0.1-1.1,0.4-2.1,1.1-2.2c0.8-0.1,1.5,0.7,1.7,1.8
				c0.1,0.8-0.2,1.6-0.7,2c-0.2,0.2-0.1,0.5,0.1,0.5c0.7-0.4,1.1-1.4,0.9-2.5C168.6,185.2,167.7,184.2,166.8,184.3z"/>
			<path class="st25" d="M594,188c-1,0.1-1.6,1.3-1.4,2.7h0.3c-0.1-1.1,0.4-2.1,1.1-2.2c0.8-0.1,1.5,0.7,1.7,1.8
				c0.1,0.8-0.2,1.6-0.7,2c-0.2,0.2-0.1,0.5,0.1,0.5c0.7-0.4,1.1-1.4,0.9-2.5C595.9,188.9,595,187.9,594,188z"/>
			<path class="st24" d="M170.9,183.7c-1,0.1-1.6,1.3-1.4,2.7h0.3c-0.1-1.1,0.4-2.1,1.1-2.2c0.8-0.1,1.5,0.7,1.7,1.8
				c0.1,0.8-0.2,1.6-0.7,2c-0.2,0.2-0.1,0.5,0.1,0.5c0.7-0.4,1.1-1.4,0.9-2.5C172.8,184.5,171.8,183.6,170.9,183.7z"/>
			<path class="st25" d="M598.2,187.4c-1,0.1-1.6,1.3-1.4,2.7h0.3c-0.1-1.1,0.4-2.1,1.1-2.2c0.8-0.1,1.5,0.7,1.7,1.8
				c0.1,0.8-0.2,1.6-0.7,2c-0.2,0.2-0.1,0.5,0.1,0.5c0.7-0.4,1.1-1.4,0.9-2.5C600.1,188.3,599.1,187.3,598.2,187.4z"/>
			<path class="st24" d="M175,183.1c-1,0.1-1.6,1.3-1.4,2.7h0.3c-0.1-1.1,0.4-2.1,1.1-2.2c0.8-0.1,1.5,0.7,1.7,1.8
				c0.1,0.8-0.2,1.6-0.7,2c-0.2,0.2-0.1,0.5,0.1,0.5c0.7-0.4,1.1-1.4,0.9-2.5C176.9,183.9,176,182.9,175,183.1z"/>
			<path class="st25" d="M602.3,186.8c-1,0.1-1.6,1.3-1.4,2.7h0.3c-0.1-1.1,0.4-2.1,1.1-2.2c0.8-0.1,1.5,0.7,1.7,1.8
				c0.1,0.8-0.2,1.6-0.7,2c-0.2,0.2-0.1,0.5,0.1,0.5c0.7-0.4,1.1-1.4,0.9-2.5C604.2,187.6,603.2,186.7,602.3,186.8z"/>
			<path class="st24" d="M179.1,182.4c-1,0.1-1.6,1.3-1.4,2.7h0.3c-0.1-1.1,0.4-2.1,1.1-2.2c0.8-0.1,1.5,0.7,1.7,1.8
				c0.1,0.8-0.2,1.6-0.7,2c-0.2,0.2-0.1,0.5,0.1,0.5c0.7-0.4,1.1-1.4,0.9-2.5C181,183.3,180.1,182.3,179.1,182.4z"/>
			<path class="st25" d="M606.4,186.2c-1,0.1-1.6,1.3-1.4,2.7h0.3c-0.1-1.1,0.4-2.1,1.1-2.2c0.8-0.1,1.5,0.7,1.7,1.8
				c0.1,0.8-0.2,1.6-0.7,2c-0.2,0.2-0.1,0.5,0.1,0.5c0.7-0.4,1.1-1.4,0.9-2.5C608.3,187,607.4,186,606.4,186.2z"/>
			<path class="st24" d="M183.2,181.8c-1,0.1-1.6,1.3-1.4,2.7h0.3c-0.1-1.1,0.4-2.1,1.1-2.2c0.8-0.1,1.5,0.7,1.7,1.8
				c0.1,0.8-0.2,1.6-0.7,2c-0.2,0.2-0.1,0.5,0.1,0.5c0.7-0.4,1.1-1.4,0.9-2.5C185.1,182.7,184.2,181.7,183.2,181.8z"/>
			<path class="st25" d="M610.5,185.5c-1,0.1-1.6,1.3-1.4,2.7h0.3c-0.1-1.1,0.4-2.1,1.1-2.2c0.8-0.1,1.5,0.7,1.7,1.8
				c0.1,0.8-0.2,1.6-0.7,2c-0.2,0.2-0.1,0.5,0.1,0.5c0.7-0.4,1.1-1.4,0.9-2.5C612.4,186.4,611.5,185.4,610.5,185.5z"/>
			<path class="st25" d="M571.4,194c-0.2-1.4-1.1-2.3-2.1-2.2s-1.6,1.3-1.4,2.7l0,0h0.3l0,0c-0.2-1.1,0.4-2.1,1.1-2.2
				c0.8-0.1,1.5,0.7,1.7,1.8c0.1,0.8-0.2,1.6-0.7,2c-0.2,0.2-0.1,0.5,0.1,0.5C571.1,196.1,571.5,195.1,571.4,194z"/>
		</g>
		<g id="Arm_Links_Kopie">
			
				<linearGradient id="SVGID_13_" gradientUnits="userSpaceOnUse" x1="596.7419" y1="487.0095" x2="582.0941" y2="449.787" gradientTransform="matrix(1 0 0 -1 0 715.8898)">
				<stop  offset="0" style="stop-color:#EDBE9A"/>
				<stop  offset="1" style="stop-color:#D89A71"/>
			</linearGradient>
			<path class="st26" d="M620.7,247.7c0,0-4.4-4.7-7.2-6.2l-9.7-3.1c-3.7-2.9-11-9.6-11-9.6c-2.1-1.5-4.2-2.9-7.3-4.1l-4-2.6
				l-8.3,2.7l-10.9-0.3c0,0-3.9,1.5-2.6,5.2c-1.3,1.3-2,4.4-0.4,6.2c-1.3,1.8-0.9,4.5,0.9,5.5c-0.5,1.5-1.1,4,3.8,5
				c3.4,0.8,7.5,1.5,12.6,0.5c2.9-0.6,5.6-1.5,8-2.4l13.3,16.8c5.8,4.6,11.5,6.9,17,6.3c3.3-0.3,5.7-1.9,6.6-5.9
				C622.7,257.2,622.4,252.4,620.7,247.7z"/>
			
				<linearGradient id="SVGID_14_" gradientUnits="userSpaceOnUse" x1="572.5262" y1="496.7002" x2="568.9507" y2="477.52" gradientTransform="matrix(1 0 0 -1 0 715.8898)">
				<stop  offset="0" style="stop-color:#EDBE9A"/>
				<stop  offset="1" style="stop-color:#D89A71"/>
			</linearGradient>
			<path class="st27" d="M569.7,225.4l-4.5,1.9c-2.8-0.4-3.8-1.6-2.9-3.7c1.7-1,3.7-2.6,5.9-4.5c2.5-0.5,5.1-0.6,7.5,0
				c1.8,0.5,3.8,1.6,5.8,3l-6.6,2.5L569.7,225.4z"/>
		</g>
		<g id="Kopf_Kopie">
			
				<linearGradient id="SVGID_15_" gradientUnits="userSpaceOnUse" x1="526.3395" y1="614.8088" x2="658.4969" y2="630.96" gradientTransform="matrix(1 0 0 -1 0 715.8898)">
				<stop  offset="0" style="stop-color:#EDBE9A"/>
				<stop  offset="1" style="stop-color:#D89A71"/>
			</linearGradient>
			<path class="st28" d="M521.1,103.4l1.6-8.2l1.4-16.5c0.5-4.1,3.8-9.1,7.8-11.9s6.2-2.1,6.2-2.1s17.3,7.6,24.3,16.2
				c1.3,2.7,3.2,14.5,2.4,21.6c0.2,7.5-2.2,12.4-4.6,18.8c-2.8,5-5.8,8.3-8.2,9.6c-3.6,1.8-8.1,4.5-15.5,3c-4.2-1-7.9-4.1-10.4-9
				C522.4,120.1,520.9,112.8,521.1,103.4z"/>
			<g id="Ebene_30_Kopie">
				
					<linearGradient id="SVGID_16_" gradientUnits="userSpaceOnUse" x1="544.9238" y1="625.3496" x2="490.645" y2="586.6474" gradientTransform="matrix(1 0 0 -1 0 715.8898)">
					<stop  offset="0" style="stop-color:#D33E20"/>
					<stop  offset="0.4263" style="stop-color:#D36922"/>
					<stop  offset="1" style="stop-color:#E8882A"/>
				</linearGradient>
				<path class="st29" d="M534.5,61.9c-1.8-0.7-4.4-0.4-5.5,0.2c-3.1,1.3-5.3,4.1-7,7.4s-1.4,9.7-4.3,13c-2.9,3.3-5.4,8.1-4.5,14.8
					c0.9,6.7-5.2,11.1-7,14.9c-1.8,3.9-1.4,7.2-0.8,11.2c1,6.2,0.9,7.5-0.3,10.9c-1.2,3.3-3.3,5.2-3.3,5.2s0.5,1.3,3.7,0.6
					c3.2-0.6,3.9,1.9,6,2c0,0,3.2-0.3,4.2-0.3s4.1,0.5,4.1,0.5l3.2,0.1l0.6,0.5c5.5,0.5,10.3-3.3,10.4-9.8c-8.5-3.8-13-18-11.6-33
					l1.2-5.4c0.7-5.2,0-9.3,0.7-14.8c1.5-7.7,6-13.1,11.5-15.1L534.5,61.9z"/>
				
					<linearGradient id="SVGID_17_" gradientUnits="userSpaceOnUse" x1="534.8772" y1="659.3961" x2="582.114" y2="563.3162" gradientTransform="matrix(1 0 0 -1 0 715.8898)">
					<stop  offset="0" style="stop-color:#D33E20"/>
					<stop  offset="0.4263" style="stop-color:#D36922"/>
					<stop  offset="1" style="stop-color:#E8882A"/>
				</linearGradient>
				<path class="st30" d="M534.5,61.9c2.7-4.9,14.9-4.1,21.6-2.8c6.7,1.4,14.5,5.6,19.6,10.3c2.2,2,5.7,5.7,6.4,10.9
					c0.8,6.6-1,6.9,3.5,14.3c4.6,7.3-3,9.7,3.1,17.8c6.2,8.3,3.6,18.9-0.4,22.1c-0.5,11.8-9.3,15.4-12.8,15.9
					c-3.4,0.5-5.7-1.2-9.6-0.6s-5.8-0.5-8.7,0.6c-3,1.1-12.5,0-12.5,0s5.7-5.4,6-9.1c0.3-3.8,0.7-5.3,2.6-8.2
					c1.8-2.9,3.2-4.3,3.9-7.6c0.7-3.2,2.3-9.5,0.5-14c-0.8-5.6-1.5-0.7-0.7-17.5s-17.6-27.6-17.6-27.6l-3.5-1.6L534.5,61.9z"/>
			</g>
		</g>
		<g id="Gesicht_Kopie">
			
				<ellipse transform="matrix(0.1004 -0.9949 0.9949 0.1004 398.4206 629.5226)" class="st8" cx="547.3" cy="94.4" rx="2.8" ry="2"/>
			
				<ellipse transform="matrix(0.1004 -0.9949 0.9949 0.1004 379.516 609.4443)" class="st8" cx="526.8" cy="94.9" rx="2.5" ry="1.8"/>
			<path class="st8" d="M532.3,97.2c-4.3-5.6-6.5-6-8.6-0.3l-2.9-1.7l2.4,0.3C525.4,88.6,530.7,92.5,532.3,97.2z"/>
			<path class="st8" d="M543.4,96c2.3-5,5.3-5.1,10.9-0.3l5-2.9l-4.7,1C548.3,89.3,544.6,89.7,543.4,96z"/>
			<path class="st31" d="M541.9,88.6l0.7-2.1c0,0,4.7-1.3,6.7-1.1c2.1,0.2,5.7,1.2,7,2.5c0.1,0.7,0.4,1.4,0.5,2
				c-2.2-1.4-5.7-2.4-7.4-2.5C547.6,87.3,541.9,88.6,541.9,88.6z"/>
			<path class="st31" d="M531.8,89.2l-0.8-2c-2.3-0.4-3.8-0.5-4.9-0.5c-1.1,0-2,0.7-2.2,0.9v1.8c0.4-0.4,1.8-0.8,2.2-0.9
				C527.3,88.6,529.1,88.7,531.8,89.2z"/>
			
				<linearGradient id="SVGID_18_" gradientUnits="userSpaceOnUse" x1="531.275" y1="596.2852" x2="547.0275" y2="596.2852" gradientTransform="matrix(1 0 0 -1 0 715.8898)">
				<stop  offset="0" style="stop-color:#E29986"/>
				<stop  offset="1" style="stop-color:#E29986"/>
			</linearGradient>
			<path class="st32" d="M547,116.8c-2.8,2.7-5.7,5.8-10.4,5.6c-2.5-0.4-4.3-2-5.4-4.6C536.3,118.1,541.6,117.7,547,116.8z"/>
			
				<linearGradient id="SVGID_19_" gradientUnits="userSpaceOnUse" x1="539.0294" y1="600.3048" x2="539.2531" y2="597.0309" gradientTransform="matrix(1 0 0 -1 0 715.8898)">
				<stop  offset="0" style="stop-color:#C67961"/>
				<stop  offset="1" style="stop-color:#D68983"/>
			</linearGradient>
			<path class="st33" d="M537.2,117.7c1.8-1.8,6.6-1.6,9.8-0.9c-2.7,0.9-5.2,1.9-7.8,1.9l-2,0.7l-1.5-0.4c-1.8,0.1-3.2-0.5-4.4-1.1
				C533.4,116.7,535.4,116.2,537.2,117.7z"/>
			
				<linearGradient id="SVGID_20_" gradientUnits="userSpaceOnUse" x1="532.0047" y1="614.933" x2="549.2989" y2="608.2998" gradientTransform="matrix(1 0 0 -1 0 715.8898)">
				<stop  offset="0" style="stop-color:#E5A693"/>
				<stop  offset="1" style="stop-color:#E5A693"/>
			</linearGradient>
			<path class="st34" d="M541.6,107.4l-2.7-4.3c-0.1-0.1-0.1-0.3-0.1-0.4c0,0-1.4-8.9-2.5-8.4c-0.6,0.3-2.4,8.5-2.4,8.5
				c0,0.1-0.1,0.2-0.1,0.3l-2.3,4.2c-0.2,0.4-0.1,1,0.3,1.3l3,1.8c0.2,0.1,0.4,0.1,0.6,0.1l5.7-1.7
				C541.7,108.7,542,107.9,541.6,107.4z"/>
			<path class="st31" d="M548.8,90.4"/>
			<path class="st31" d="M500.6,90.8"/>
		</g>
	</g>
</g>
<g id="Desktop">
	<ellipse id="Schatten_3_" class="st2" cx="449.5" cy="667.5" rx="312" ry="15.9"/>
	
		<linearGradient id="Fuß_1_" gradientUnits="userSpaceOnUse" x1="449.5856" y1="67.385" x2="449.379" y2="21.5289" gradientTransform="matrix(1 0 0 -1 0 715.8898)">
		<stop  offset="0" style="stop-color:#282828"/>
		<stop  offset="1" style="stop-color:#494949"/>
	</linearGradient>
	<ellipse id="Fuß" class="st35" cx="449.5" cy="667.5" rx="132.6" ry="15.9"/>
	
		<linearGradient id="Bein_1_" gradientUnits="userSpaceOnUse" x1="450.0766" y1="48.3504" x2="448.9207" y2="130.4256" gradientTransform="matrix(1 0 0 -1 0 715.8898)">
		<stop  offset="0" style="stop-color:#494949"/>
		<stop  offset="1" style="stop-color:#282827"/>
	</linearGradient>
	<path id="Bein" class="st36" d="M465.2,662.8c-10.1,7.5-20.6,7-31.5,0v-79.5h31.5V662.8z"/>
	
		<linearGradient id="Ramen_1_" gradientUnits="userSpaceOnUse" x1="137.6" y1="323.9398" x2="761.5" y2="323.9398" gradientTransform="matrix(1 0 0 -1 0 715.8898)">
		<stop  offset="0" style="stop-color:#282827"/>
		<stop  offset="0.2781" style="stop-color:#494949"/>
		<stop  offset="1" style="stop-color:#282827"/>
	</linearGradient>
	<path id="Ramen" class="st37" d="M758.5,583.3H140.6c-1.7,0-3-1.4-3-3V203.6c0-1.7,1.4-3,3-3h617.9c1.7,0,3,1.4,3,3v376.6
		C761.5,582,760.1,583.3,758.5,583.3z"/>
	<rect id="Innen_1_" x="159.8" y="222.9" class="st38" width="579.4" height="338.1"/>
	
		<image style="overflow:visible;enable-background:new    ;" width="1365" height="1024" xlink:href="../../Layout/Header.jpg"  transform="matrix(0.4244 0 0 0.3302 159.8308 222.9066)">
	</image>
	<g id="Desktop_1_">
		<rect x="159.8" y="222.9" class="st38" width="579.6" height="338.1"/>
		<path class="st39" d="M431.8,548.5c-0.5,0-0.9-0.1-1.1-0.4c-0.3-0.3-0.4-0.7-0.4-1.2v-0.4h1v0.4c0,0.4,0.2,0.6,0.5,0.6
			c0.2,0,0.3-0.1,0.4-0.2c0.1-0.1,0.1-0.3,0.1-0.5c0-0.3-0.1-0.5-0.2-0.7s-0.4-0.5-0.7-0.8c-0.4-0.4-0.7-0.7-0.9-1
			c-0.2-0.3-0.3-0.6-0.3-1c0-0.5,0.1-0.9,0.4-1.2s0.6-0.4,1.1-0.4s0.9,0.1,1.1,0.4c0.3,0.3,0.4,0.7,0.4,1.2v0.3h-1v-0.3
			c0-0.2,0-0.4-0.1-0.5s-0.2-0.2-0.4-0.2c-0.3,0-0.5,0.2-0.5,0.6c0,0.2,0.1,0.5,0.2,0.7s0.4,0.5,0.7,0.7c0.4,0.4,0.7,0.7,0.9,1
			c0.2,0.3,0.2,0.7,0.2,1.1c0,0.5-0.1,0.9-0.4,1.2C432.7,548.4,432.3,548.5,431.8,548.5z M435.4,548.5c-0.5,0-0.9-0.1-1.1-0.4
			c-0.3-0.3-0.4-0.7-0.4-1.2v-3.5c0-0.5,0.1-0.9,0.4-1.2s0.6-0.4,1.1-0.4s0.9,0.1,1.1,0.4c0.3,0.3,0.4,0.7,0.4,1.2v0.7h-1v-0.8
			c0-0.4-0.2-0.6-0.5-0.6s-0.5,0.2-0.5,0.6v3.6c0,0.4,0.2,0.6,0.5,0.6s0.5-0.2,0.5-0.6v-1h1v0.9c0,0.5-0.1,0.9-0.4,1.2
			C436.3,548.4,435.9,548.5,435.4,548.5z M437.5,541.9h1.5c0.5,0,0.9,0.1,1.2,0.4c0.2,0.2,0.4,0.6,0.4,1.1v0.4
			c0,0.7-0.2,1.1-0.7,1.3l0,0c0.2,0.1,0.4,0.2,0.5,0.5c0.1,0.2,0.2,0.5,0.2,0.9v1.1c0,0.2,0,0.3,0,0.5c0,0.1,0,0.2,0.1,0.3h-1
			c0-0.1-0.1-0.2-0.1-0.3s0-0.3,0-0.5v-1.2c0-0.3,0-0.5-0.1-0.6s-0.3-0.2-0.5-0.2h-0.4v2.8h-1v-6.5H437.5z M438.9,544.7
			c0.2,0,0.4-0.1,0.5-0.2c0.1-0.1,0.2-0.3,0.2-0.5v-0.5c0-0.2,0-0.4-0.1-0.5s-0.2-0.2-0.4-0.2h-0.5v1.9H438.9z M442.8,548.5
			c-0.5,0-0.9-0.1-1.2-0.4c-0.3-0.3-0.4-0.7-0.4-1.2v-3.4c0-0.5,0.1-0.9,0.4-1.2s0.7-0.4,1.2-0.4s0.9,0.1,1.2,0.4
			c0.3,0.3,0.4,0.7,0.4,1.2v3.4c0,0.5-0.1,0.9-0.4,1.2C443.6,548.4,443.3,548.5,442.8,548.5z M442.8,547.6c0.4,0,0.5-0.2,0.5-0.6
			v-3.6c0-0.4-0.2-0.6-0.5-0.6c-0.4,0-0.5,0.2-0.5,0.6v3.6C442.2,547.4,442.4,547.6,442.8,547.6z M445,541.9h1v5.6h1.7v0.9H445
			V541.9z M448.2,541.9h1v5.6h1.7v0.9h-2.7V541.9z M452.9,541.9h1.6c0.5,0,0.9,0.1,1.1,0.4c0.3,0.3,0.4,0.7,0.4,1.2v3.3
			c0,0.5-0.1,0.9-0.4,1.2s-0.6,0.4-1.1,0.4h-1.6V541.9z M454.4,547.5c0.2,0,0.3-0.1,0.4-0.2c0.1-0.1,0.1-0.3,0.1-0.5v-3.4
			c0-0.2,0-0.4-0.1-0.5s-0.2-0.2-0.4-0.2h-0.5v4.7h0.5V547.5z M458.1,548.5c-0.5,0-0.9-0.1-1.2-0.4c-0.3-0.3-0.4-0.7-0.4-1.2v-3.4
			c0-0.5,0.1-0.9,0.4-1.2s0.7-0.4,1.2-0.4s0.9,0.1,1.2,0.4c0.3,0.3,0.4,0.7,0.4,1.2v3.4c0,0.5-0.1,0.9-0.4,1.2
			C459,548.4,458.6,548.5,458.1,548.5z M458.1,547.6c0.4,0,0.5-0.2,0.5-0.6v-3.6c0-0.4-0.2-0.6-0.5-0.6s-0.5,0.2-0.5,0.6v3.6
			C457.6,547.4,457.8,547.6,458.1,547.6z M460.1,541.9h1l0.5,5l0,0l0.5-5h1.1l0.5,5l0,0l0.5-5h0.9l-0.7,6.5h-1.3l-0.5-4.4l0,0
			l-0.5,4.4h-1.4L460.1,541.9z M465.6,541.9h1.3l1,3.9l0,0v-3.9h0.9v6.5h-1.1l-1.2-4.8l0,0v4.8h-0.9L465.6,541.9L465.6,541.9z"/>
		<path class="st39" d="M449.3,534.6c0.2,0.2,0.5,0.2,0.6,0l2.9-2.9c0.2-0.2,0.2-0.5,0-0.6c-0.2-0.2-0.5-0.2-0.6,0l-2.5,2.5
			l-2.5-2.5c-0.2-0.2-0.5-0.2-0.6,0c-0.2,0.2-0.2,0.5,0,0.6L449.3,534.6z M449.2,519v15.3h0.9V519H449.2z"/>
		<path class="st2" d="M584.7,518.9c19.1,0,34.6-3.7,34.6-8.3s-15.5-8.3-34.6-8.3s-34.6,3.7-34.6,8.3S565.5,518.9,584.7,518.9z"/>
		<path class="st0" d="M674,369.1c3,14.6-5.4,31.4-17.2,40.2c-8.5,6.4-12.6,3.9-31.7,10.6c-22.5,7.9-23,13.4-36.1,16.8
			c-16.1,4.3-44.7,3.7-60.5-16.3c-15.1-19.1-13.3-49.4,0.1-64.7c12.6-14.4,30.5-9.9,42-28.3c6.8-10.8,2.6-15.6,9.2-23.2
			c13.8-15.8,50.2-15.8,64.4,0.6c8.9,10.3,2,18.7,13.3,39.3C665.9,358.9,671.8,358.7,674,369.1z"/>
		<path class="st1" d="M528.2,346.5c6.3-12.4,19-17.3,24-19.2c10-3.8,13.1-1.4,25-4.8c13.7-3.9,16.5-9.1,26.3-13.4
			c14.7-6.5,39.8-8.5,57.7,6c13.9,11.2,21.9,31.1,17.8,48.7c-4.5,19.2-23.1,32.9-36.8,38.4c-9.9,4-17.6,3.9-23.6,11.7
			c-4.9,6.4-3.1,11-9.1,20.4c-2.3,3.7-6.8,10.8-14.4,14.6c-13.4,6.8-33.9,1.6-42.2-10.5c-6.9-10.1,0.4-16.9-7-32.6
			c-5.5-11.6-10.5-10.1-16-21.7C528.6,381.2,519.8,363,528.2,346.5z"/>
		<path class="st1" d="M528.2,346.5c6.3-12.4,19-17.3,24-19.2c10-3.8,13.1-1.4,25-4.8c13.7-3.9,16.5-9.1,26.3-13.4
			c14.7-6.5,39.8-8.5,57.7,6c13.9,11.2,21.9,31.1,17.8,48.7c-4.5,19.2-23.1,32.9-36.8,38.4c-9.9,4-17.6,3.9-23.6,11.7
			c-4.9,6.4-3.1,11-9.1,20.4c-2.3,3.7-6.8,10.8-14.4,14.6c-13.4,6.8-33.9,1.6-42.2-10.5c-6.9-10.1,0.4-16.9-7-32.6
			c-5.5-11.6-10.5-10.1-16-21.7C528.6,381.2,519.8,363,528.2,346.5z"/>
		
			<linearGradient id="SVGID_21_" gradientUnits="userSpaceOnUse" x1="584.9403" y1="2354.1692" x2="585.4683" y2="2351.1792" gradientTransform="matrix(1 0 0 1 0 -1854.2339)">
			<stop  offset="0" style="stop-color:#EDBE9A"/>
			<stop  offset="0.6882" style="stop-color:#E5AB86"/>
			<stop  offset="1" style="stop-color:#E1A17C"/>
		</linearGradient>
		<path class="st40" d="M581.5,495.3c0,0,0.1,2.1,0,2.9l-0.7,2.5h8.2l0.1-2.1c0-0.5,0.3-1,0.6-1.5L581.5,495.3z"/>
		
			<linearGradient id="SVGID_22_" gradientUnits="userSpaceOnUse" x1="608.1137" y1="2337.8704" x2="603.2926" y2="2332.9402" gradientTransform="matrix(1 0 0 1 0 -1854.2339)">
			<stop  offset="0" style="stop-color:#EDBE9A"/>
			<stop  offset="0.6882" style="stop-color:#E5AB86"/>
			<stop  offset="1" style="stop-color:#E1A17C"/>
		</linearGradient>
		<path class="st41" d="M600.5,482.5c1,1.2,1.6,2.4,1.9,3.7c0.9,0.6,3.4-0.1,6.6-1.5l1-5.3l-2.6-4.9l-1.9-0.2L600.5,482.5z"/>
		<path class="st8" d="M601.8,486.6c-0.4-2.2,3.4-2.3,4.8-1.1l-0.3,6l0.5,9l-3.8,0.1c0.4-1.5,0.4-6.4,0.4-6.4s-0.1-3.8-1.1-6.3
			C602.1,487.3,601.8,486.6,601.8,486.6z"/>
		<path class="st1" d="M604.7,487.1c0,0,5.5-5.5,2.6-12.6h-0.2c0-0.1,0.1-0.3,0.3-0.4c2-0.2,3.8-0.3,5.2,0.2
			c1.7,2.2,1.2,3.5,0.7,6.8c-1,5.6-1.3,10.3-1.3,15c0.1,3.1-0.5,5.4-1.9,7l-3.5-2.5C606.7,496.8,605.5,487.9,604.7,487.1z"/>
		<path class="st1" d="M602.5,500.9c0,0,0.3-1.3,0.4-1.8c0.1,0,0.7-7.7-0.8-11.1l0.1-0.2c1.2,2.3,1.3,6.7,1.2,11.3
			c0,0.4-0.1,1.1-0.2,1.3L602.5,500.9z"/>
		
			<linearGradient id="SVGID_23_" gradientUnits="userSpaceOnUse" x1="606.2547" y1="2354.1165" x2="606.0687" y2="2362.9937" gradientTransform="matrix(1 0 0 1 0 -1854.2339)">
			<stop  offset="0" style="stop-color:#C6C6C6"/>
			<stop  offset="0.3618" style="stop-color:#B2B2B2"/>
			<stop  offset="1" style="stop-color:#878787"/>
		</linearGradient>
		<path class="st42" d="M610.1,502.4c-3.2-2.9-5.9-3.2-7.7-1.6c-0.2,1.9-0.1,3.3,0.5,4.7C604.9,508,608.3,507.8,610.1,502.4z"/>
		<path class="st3" d="M602.3,502.7c0,1.4,0.2,2.7,0.6,3.6c0.6,1,2,1.6,2.8,1.6s1.2-0.1,1.7-0.3c1.2-0.5,2.4-1.9,2.8-2.5
			c0.4-0.6,1-1.9,1-1.9c1.1-2.9,1.8-7.8,2.4-13.7c0.3-3.2,0.8-6.5,1.5-10c0.2-2.1-0.1-3.3-1-4.7l-1.9-0.6c-0.1,0-0.1,0-0.2,0h0.1
			c1,1.5,1.5,3.7,1.4,4.9c-0.1,1.2-1.1,6.6-1.6,9.9c-0.5,5.9-0.7,12.5-2.8,15.4c-0.8,1-1.6,1.6-2.5,2.2c-1.4,0.6-2.7,0.4-3.6-1.3
			C602.6,504.5,602.3,502.7,602.3,502.7z"/>
		<path class="st8" d="M585.5,511l5.8-0.7l-2.6-10.1c-2-2.6-3.7-2.2-6.1,0L585.5,511z"/>
		<path class="st1" d="M584.7,512.8l1.7-2.7c-0.5-1.6-0.9-6.5-0.9-6.5c-0.3-1.5-0.7-2.8-1.2-3.8c-1.2,0-2.2-0.1-3.1-0.4v-0.1
			c0,0-0.1,0-0.2,0l-0.8,1.9c-0.9,2-1.2,3.4-1,4.2c0,0,1.7,2.5,3,3.6l0.7,1.4l0.5,1.7L584.7,512.8z"/>
		<path class="st1" d="M593.7,513.2l0.6-2.2c-0.3-0.6-0.6-1.2-1-1.7c-1.1-1.1-1.9-2.2-2.5-3.6l-1.5-4.5l-0.1-1.3c0,0-0.1,0-0.1-0.1
			v0.1c-0.4,0.2-0.7,0.2-1.2,0.2c0,0,0,2.4,0.2,3.5c0.4,1.5,0.9,2.9,1.4,4.1C590.2,509.1,593,512.6,593.7,513.2z"/>
		
			<linearGradient id="SVGID_24_" gradientUnits="userSpaceOnUse" x1="588.3348" y1="2364.3311" x2="591.0168" y2="2372.2144" gradientTransform="matrix(1 0 0 1 0 -1854.2339)">
			<stop  offset="0" style="stop-color:#C6C6C6"/>
			<stop  offset="0.3618" style="stop-color:#B2B2B2"/>
			<stop  offset="1" style="stop-color:#878787"/>
		</linearGradient>
		<path class="st43" d="M594.3,510.9c-1.3-2.1-7.3-3.8-10.8,1.6c0.3,2.7,7.3,3.3,8,1.9C593.5,513.7,594.4,512.5,594.3,510.9z"/>
		
			<linearGradient id="SVGID_25_" gradientUnits="userSpaceOnUse" x1="585.1393" y1="2367.4619" x2="578.9023" y2="2381.79" gradientTransform="matrix(1 0 0 1 0 -1854.2339)">
			<stop  offset="0" style="stop-color:#C6C6C6"/>
			<stop  offset="0.4347" style="stop-color:#B2B2B2"/>
			<stop  offset="1" style="stop-color:#939393"/>
		</linearGradient>
		<path class="st44" d="M579.1,505.3c-0.1,1,0,1.6,0.2,2.4c1.8,1.7,2.5,3.5,3.1,5.3l1.7,1.9c3.7,2.2,10,0.8,10.5-1.7
			c0.1-0.8-0.2-2.2-0.2-2.2c-0.6-0.9-0.8-1.3-1.1-1.7c0.4,0.5,0.7,1,0.8,1.5c0.1,3.4-7.1,4.4-10.5,1.2c-0.3-1.2-0.8-2.2-1.3-2.9
			l-3-3.8l-0.1-0.2L579.1,505.3z"/>
		
			<linearGradient id="SVGID_26_" gradientUnits="userSpaceOnUse" x1="578.4745" y1="2355.7537" x2="604.8031" y2="2237.0769" gradientTransform="matrix(1 0 0 1 0 -1854.2339)">
			<stop  offset="0" style="stop-color:#9D9D9C"/>
			<stop  offset="0.2147" style="stop-color:#898989"/>
			<stop  offset="0.2382" style="stop-color:#878787"/>
			<stop  offset="0.5825" style="stop-color:#9B9B9A"/>
			<stop  offset="0.6201" style="stop-color:#9D9D9C"/>
			<stop  offset="0.8712" style="stop-color:#AFAFAF"/>
			<stop  offset="1" style="stop-color:#9D9D9C"/>
		</linearGradient>
		<path class="st45" d="M590.8,377.2l15.3,2.2c1.3,3.9,2.6,7.5,3.3,9.6c0.2,1.5,0.1,2.7,0,3.7l1.2,5.2c0.2,1.8-0.8,8.5-1.4,13.8
			c-2.1,15.3-4,29.7-5.3,39.1c-1,7.1-2.1,13.6-3.2,19.3l-3.4,12.2c-1.4,3.9-2.8,7.4-4.4,10.5c-2.6-0.1-5.1-0.4-7.6-1
			c-1.3-0.4-2.5-0.8-3.5-1.3c0.1-1.9,0.2-3.7,0.3-5.6c0.5-2.2,1.7-4.9,3.2-8c-0.1-4.1,0.2-8.2,1.2-12.3l1-37.4l-0.4-18.6
			L590.8,377.2z"/>
		
			<linearGradient id="SVGID_27_" gradientUnits="userSpaceOnUse" x1="608.5679" y1="2348.7505" x2="567.2569" y2="2225.624" gradientTransform="matrix(1 0 0 1 0 -1854.2339)">
			<stop  offset="0" style="stop-color:#878787"/>
			<stop  offset="0.1536" style="stop-color:#9B9B9B"/>
			<stop  offset="0.2867" style="stop-color:#AFAFAF"/>
			<stop  offset="0.781" style="stop-color:#AFAFAF"/>
			<stop  offset="1" style="stop-color:#878787"/>
		</linearGradient>
		<path class="st46" d="M590.8,377.2l-26.2,2.5l-0.8,14.1l0.2,3.9c-0.3,1.9-0.5,3.6-0.4,4.9c0.1,1.1,1,2.6,1,3.4
			c0.1,0.8-0.2,4-0.1,4.8c0.2,1.7,0,4.1,0.7,5.4c0.5,1.6,5.3,25.8,5.3,25.8l0.8,5.8c0.6,1.4,1.5,2.4,2.6,3.4c0.3,1.1,0.5,2.1,0.8,3
			c0.4,1.5,4.4,5.4,7.1,8.5l5.6,8.1l6.3,8.4l1.4,1.2l1.8,0.9h2c2.5-1.5,5-3.1,5.8-5.4c0.6-1.3,0.2-3-0.4-4.8l-2.5-2.8l-3.5-7.2
			l-5.4-9.4c-0.3-0.4-1.5-1.1-1.5-1.1c-0.2-2.1-0.9-2.9-2.1-4.4c0,0-1.5-11.3-1.6-16.9l0.8-13.6l0.4-11c0-0.4,3.2-5.4,3.2-5.4
			s0.5-5.5,0.5-8.9c-0.1-2.8-0.6-6.2-1.1-9.8L590.8,377.2z"/>
		<path class="st15" d="M581.4,490.5c0-0.1,0.3-0.2,0.4-0.2v0.2c0,0,2.2,0.8,3.5,1.2c2.4,0.5,7.6,1.1,7.6,1.1l0.2-0.3
			c0.2,0.2,0.3,0.4,0.3,0.5l-1.7,4.5c0,0-1.6,0.4-2.2,0.3c-1.8-0.2-3.6-0.4-5.4-0.5c-1.2-0.3-2.9-1.1-2.9-1.1s-0.4-0.4-0.4-0.7
			C580.8,493.6,581.4,490.5,581.4,490.5z"/>
		<path class="st15" d="M595.5,480.7l-0.7-0.5c-0.2,0.4-0.2,0.8,0,1.2l3.1,3.4c0.9,0.1,1.9-0.1,2.8-0.4c1.5-0.7,3-1.9,4.4-3.4
			c0.9-1.5,1.5-3.2,1.9-4.9c0-1.2-0.1-2.2-0.3-2.9l-2-2.4c-0.3-0.1-0.5-0.2-0.8-0.1l0.3,0.3c0,1.1,0,2.4-0.1,3.4
			c-0.2,1.1-0.9,2.1-1.7,3.2c-1.4,1.4-2.8,2.6-4.3,3.2C597.3,481,596.5,480.9,595.5,480.7z"/>
		<path class="st16" d="M589,404.7c0.6,0,3.1-4.6,3.1-4.7c0,0,0.7-6.7,0.6-10.6c-0.3-3.7-0.7-7.1-1.3-9.7L588,380
			c0.5,3.8,1,7.4,1.3,10.5c0.2,3.5,0.1,7,0,10.3L589,404.7z"/>
		<path class="st16" d="M563.8,393.8c3.3,0.4,4.7-4.9,5.9-10.9l2-0.4c-1.8,9.2-3.3,13.4-7.8,13.2L563.8,393.8z"/>
		<path class="st16" d="M609.4,392.7l-1.6-3.8c-1.2-3.1-2.8-5.9-4.9-8.2l3.5,1.6l1.9,3.2l1.2,3.5
			C609.6,390.3,609.6,391.6,609.4,392.7z"/>
		
			<linearGradient id="SVGID_28_" gradientUnits="userSpaceOnUse" x1="614.9735" y1="2204.4817" x2="612.8164" y2="2217.1689" gradientTransform="matrix(1 0 0 1 0 -1854.2339)">
			<stop  offset="0" style="stop-color:#EDBE9A"/>
			<stop  offset="0.1773" style="stop-color:#EBBA95"/>
			<stop  offset="0.6603" style="stop-color:#E1A981"/>
			<stop  offset="1" style="stop-color:#D89A71"/>
		</linearGradient>
		<path class="st47" d="M611.1,361.6l7.5,3.7l-5.6-25.5l-4,9.2L611.1,361.6z"/>
		
			<linearGradient id="SVGID_29_" gradientUnits="userSpaceOnUse" x1="584.241" y1="2181.1841" x2="584.2859" y2="2162.8154" gradientTransform="matrix(1 0 0 1 0 -1854.2339)">
			<stop  offset="0" style="stop-color:#EDBE9A"/>
			<stop  offset="1" style="stop-color:#D89A71"/>
		</linearGradient>
		<path class="st48" d="M568.1,320.6l9.2-0.6c2.3-0.1,3.5-1.7,3.9-4.9l12-3.4c-0.6,3.5,0.1,8.4,0.7,9.8c1.1,2.5,3.4,3.6,6.5,4.4
			l-9.2,9.5l-13.3-5.1L568.1,320.6z"/>
		
			<linearGradient id="SVGID_30_" gradientUnits="userSpaceOnUse" x1="562.188" y1="2216.7944" x2="568.3653" y2="2203.1045" gradientTransform="matrix(1 0 0 1 0 -1854.2339)">
			<stop  offset="0" style="stop-color:#EDBE9A"/>
			<stop  offset="1" style="stop-color:#D89A71"/>
		</linearGradient>
		<path class="st49" d="M569.6,383.4c0,0-4.4-3.2-6-3.8c-2.8-4.9-4.5-21.9-4.5-21.9c-0.1-0.7,0-1.5,0.4-2.2c0,0,6.7-15.3,11.1-25.1
			c0.9-1,1.5-2.4,1.5-3.8c0-3.2-2.3-5.8-5.4-5.4c-2.4,0.4-5.1,1.9-5.9,4.4c-3.7,8.8-8.1,17.6-10.6,26.6c-0.2,1.7-0.2,3.3,0,4.5
			c0,0,3.4,19,7.5,25.7c0.3,0.9,0.5,1.7,0.7,2.5c0.9,3,5.3,9.4,5.5,9.1C567.3,394.2,568.4,388.6,569.6,383.4z"/>
		
			<linearGradient id="SVGID_31_" gradientUnits="userSpaceOnUse" x1="583.7673" y1="2172.4192" x2="585.3304" y2="2242.8054" gradientTransform="matrix(1 0 0 1 0 -1854.2339)">
			<stop  offset="0" style="stop-color:#3C3C3B"/>
			<stop  offset="1" style="stop-color:#161616"/>
		</linearGradient>
		<path class="st50" d="M560.9,324.6c0,0-7.2,12.4-10,18.5c3.3,3.4,7.7,5.6,12.4,6.5l1.6-3.5c0.5,4.4,0.4,9-0.1,14
			c-0.1,3.7-2.5,15.9-2.5,15.9c0.3,1.3,0.8,2.5,1.4,3.5c1.8,1,3.8,2.2,6,3.8c0,0,5.2-1.3,6.4-1.5c2.9-0.6,6.1-1,9.5-1.3
			c4.4-0.4,8.9-0.4,13.7,0.1c2.4,0.1,4.8,0.7,7.1,1.7l1.8,3.1c0.2-0.3,0.6-2.2,0.4-3.5c-0.3-1.8-0.1-3.1-0.9-5.3
			c-0.5-1.5-0.5-3.8-0.5-6.5l-0.8-12.7l1.3-3.2l0.7-2.8l-0.7,4.9c4,0.9,10.4-0.9,10.3-1.5c-3.2-10.3-6-23.8-10.5-26.4
			c-3.1-1.4-10.4-3.9-10.4-3.9c-0.2,0-0.3,0-0.5,0.1c0.1,0,0.2,0.1,0.3,0.1c-2.4,4.7-8.5,6.2-12,5.7s-8.6-4-8.5-10.5h0.2
			c-0.1-0.1-0.2-0.1-0.3-0.2h-1.4l-6.8,0.6C564.7,321.1,562.3,322.3,560.9,324.6z"/>
		
			<linearGradient id="SVGID_32_" gradientUnits="userSpaceOnUse" x1="605.6392" y1="2193.7231" x2="603.6472" y2="2215.9851" gradientTransform="matrix(1 0 0 1 0 -1854.2339)">
			<stop  offset="0" style="stop-color:#F6F6F6"/>
			<stop  offset="1" style="stop-color:#D6D6D6"/>
		</linearGradient>
		<path class="st51" d="M592.9,374.9l18.8-4.6l3.5-30.7l-19,2.9L592.9,374.9z"/>
		<path class="st23" d="M592.3,374.7l0.6,0.3l3.3-32.4l-0.6-0.2L592.3,374.7z"/>
		<path class="st23" d="M595.6,342.3l0.6,0.2l19-2.9l-1-0.2L595.6,342.3z"/>
		<path class="st25" d="M598.1,340.9c-0.4,0.1-0.7,0.6-0.6,1.2h0.1c-0.1-0.5,0.2-0.9,0.5-0.9s0.7,0.3,0.7,0.8c0,0.4-0.1,0.7-0.3,0.9
			c-0.1,0.1,0,0.2,0,0.2c0.3-0.2,0.5-0.6,0.4-1.1C599,341.2,598.5,340.8,598.1,340.9z"/>
		<path class="st25" d="M599.9,340.6c-0.4,0.1-0.7,0.6-0.6,1.2h0.1c-0.1-0.5,0.2-0.9,0.5-0.9s0.7,0.3,0.7,0.8c0,0.4-0.1,0.7-0.3,0.9
			c-0.1,0.1,0,0.2,0,0.2c0.3-0.2,0.5-0.6,0.4-1.1C600.7,341,600.3,340.5,599.9,340.6z"/>
		<path class="st25" d="M601.7,340.3c-0.4,0.1-0.7,0.6-0.6,1.2h0.1c-0.1-0.5,0.2-0.9,0.5-0.9s0.7,0.3,0.7,0.8c0,0.4-0.1,0.7-0.3,0.9
			c-0.1,0.1,0,0.2,0,0.2c0.3-0.2,0.5-0.6,0.4-1.1C602.5,340.7,602.1,340.3,601.7,340.3z"/>
		<path class="st25" d="M603.5,340c-0.4,0.1-0.7,0.6-0.6,1.2h0.1c-0.1-0.5,0.2-0.9,0.5-0.9s0.7,0.3,0.7,0.8c0,0.4-0.1,0.7-0.3,0.9
			c-0.1,0.1,0,0.2,0,0.2c0.3-0.2,0.5-0.6,0.4-1.1C604.3,340.4,603.9,340,603.5,340z"/>
		<path class="st25" d="M605.2,339.8c-0.4,0.1-0.7,0.6-0.6,1.2h0.1c-0.1-0.5,0.2-0.9,0.5-0.9s0.7,0.3,0.7,0.8c0,0.4-0.1,0.7-0.3,0.9
			c-0.1,0.1,0,0.2,0,0.2c0.3-0.2,0.5-0.6,0.4-1.1C606.1,340.1,605.7,339.7,605.2,339.8z"/>
		<path class="st25" d="M607,339.5c-0.4,0.1-0.7,0.6-0.6,1.2h0.1c-0.1-0.5,0.2-0.9,0.5-0.9s0.7,0.3,0.7,0.8c0,0.4-0.1,0.7-0.3,0.9
			c-0.1,0.1,0,0.2,0,0.2c0.3-0.2,0.5-0.6,0.4-1.1C607.8,339.9,607.4,339.4,607,339.5z"/>
		<path class="st25" d="M608.8,339.2c-0.4,0.1-0.7,0.6-0.6,1.2h0.1c-0.1-0.5,0.2-0.9,0.5-0.9s0.7,0.3,0.7,0.8c0,0.4-0.1,0.7-0.3,0.9
			c-0.1,0.1,0,0.2,0,0.2c0.3-0.2,0.5-0.6,0.4-1.1C609.6,339.6,609.2,339.2,608.8,339.2z"/>
		<path class="st25" d="M610.6,339c-0.4,0.1-0.7,0.6-0.6,1.2h0.1c-0.1-0.5,0.2-0.9,0.5-0.9s0.7,0.3,0.7,0.8c0,0.4-0.1,0.7-0.3,0.9
			c-0.1,0.1,0,0.2,0,0.2c0.3-0.2,0.5-0.6,0.4-1.1C611.4,339.3,611,338.9,610.6,339z"/>
		<path class="st25" d="M612.4,338.7c-0.4,0.1-0.7,0.6-0.6,1.2h0.1c-0.1-0.5,0.2-0.9,0.5-0.9s0.7,0.3,0.7,0.8c0,0.4-0.1,0.7-0.3,0.9
			c-0.1,0.1,0,0.2,0,0.2c0.3-0.2,0.5-0.6,0.4-1.1C613.2,339.1,612.8,338.6,612.4,338.7z"/>
		<path class="st25" d="M614.1,338.4c-0.4,0.1-0.7,0.6-0.6,1.2h0.1c-0.1-0.5,0.2-0.9,0.5-0.9s0.7,0.3,0.7,0.8c0,0.4-0.1,0.7-0.3,0.9
			c-0.1,0.1,0,0.2,0,0.2c0.3-0.2,0.5-0.6,0.4-1.1C615,338.8,614.6,338.4,614.1,338.4z"/>
		<path class="st25" d="M597.2,342.1c-0.1-0.6-0.5-1-0.9-1c-0.4,0.1-0.7,0.6-0.6,1.2l0,0h0.1c-0.1-0.5,0.1-0.9,0.5-0.9
			c0.3,0,0.7,0.3,0.7,0.8c0,0.4-0.1,0.7-0.3,0.9c-0.1,0.1,0,0.2,0,0.2C597.1,343,597.3,342.5,597.2,342.1z"/>
		
			<linearGradient id="SVGID_33_" gradientUnits="userSpaceOnUse" x1="608.3048" y1="2211.429" x2="601.9717" y2="2227.5078" gradientTransform="matrix(1 0 0 1 0 -1854.2339)">
			<stop  offset="0" style="stop-color:#EDBE9A"/>
			<stop  offset="1" style="stop-color:#D89A71"/>
		</linearGradient>
		<path class="st52" d="M618.5,365.3c0,0-1.9-2-3.1-2.7l-4.2-1.3c-1.6-1.2-4.7-4.1-4.7-4.1c-0.9-0.6-1.8-1.3-3.2-1.8l-1.7-1.1
			l-3.6,1.2l-4.7-0.1c0,0-1.7,0.7-1.1,2.2c-0.6,0.6-0.9,1.9-0.2,2.7c-0.6,0.8-0.4,2,0.4,2.4c-0.2,0.7-0.5,1.7,1.7,2.2
			c1.5,0.4,3.2,0.7,5.4,0.2c1.3-0.3,2.4-0.6,3.5-1l5.7,7.3c2.5,2,5,3,7.4,2.7c1.4-0.1,2.5-0.8,2.9-2.5
			C619.4,369.4,619.3,367.3,618.5,365.3z"/>
		
			<linearGradient id="SVGID_34_" gradientUnits="userSpaceOnUse" x1="597.7977" y1="2207.2097" x2="596.2496" y2="2215.4958" gradientTransform="matrix(1 0 0 1 0 -1854.2339)">
			<stop  offset="0" style="stop-color:#EDBE9A"/>
			<stop  offset="1" style="stop-color:#D89A71"/>
		</linearGradient>
		<path class="st53" d="M596.5,355.6l-1.9,0.8c-1.2-0.2-1.6-0.7-1.2-1.6c0.7-0.4,1.6-1.1,2.5-2c1.1-0.2,2.2-0.2,3.3,0
			c0.8,0.2,1.6,0.7,2.5,1.3l-2.9,1.1L596.5,355.6z"/>
		
			<linearGradient id="SVGID_35_" gradientUnits="userSpaceOnUse" x1="577.808" y1="2156.2434" x2="634.8663" y2="2149.2749" gradientTransform="matrix(1 0 0 1 0 -1854.2339)">
			<stop  offset="0" style="stop-color:#EDBE9A"/>
			<stop  offset="1" style="stop-color:#D89A71"/>
		</linearGradient>
		<path class="st54" d="M575.5,302.9l0.7-3.5l0.6-7.1c0.2-1.8,1.6-3.9,3.4-5.1c1.7-1.2,2.7-0.9,2.7-0.9s7.5,3.3,10.5,7
			c0.5,1.2,1.4,6.3,1,9.4c0.1,3.2-0.9,5.4-2,8.1c-1.2,2.1-2.5,3.6-3.5,4.1c-1.6,0.8-3.5,1.9-6.7,1.3c-1.8-0.4-3.4-1.8-4.5-3.9
			C576.1,310.2,575.4,307,575.5,302.9z"/>
		
			<linearGradient id="SVGID_36_" gradientUnits="userSpaceOnUse" x1="585.8777" y1="2151.6953" x2="562.4321" y2="2168.4016" gradientTransform="matrix(1 0 0 1 0 -1854.2339)">
			<stop  offset="0" style="stop-color:#D33E20"/>
			<stop  offset="0.4263" style="stop-color:#D36922"/>
			<stop  offset="1" style="stop-color:#E8882A"/>
		</linearGradient>
		<path class="st55" d="M581.3,285c-0.8-0.3-1.9-0.2-2.3,0.1c-1.3,0.6-2.3,1.8-3,3.2c-0.7,1.4-0.6,4.2-1.9,5.6
			c-1.3,1.4-2.3,3.5-1.9,6.4c0.4,2.9-2.2,4.8-3,6.5s-0.6,3.1-0.3,4.8c0.4,2.7,0.4,3.3-0.2,4.7c-0.5,1.4-1.4,2.2-1.4,2.2
			s0.2,0.6,1.6,0.3c1.4-0.3,1.7,0.8,2.6,0.9c0,0,1.4-0.1,1.8-0.1c0.5,0,1.8,0.2,1.8,0.2h1.4l0.3,0.2c2.4,0.2,4.5-1.4,4.5-4.2
			c-3.7-1.6-5.6-7.8-5-14.3l0.5-2.3c0.3-2.2,0-4,0.3-6.4c0.6-3.3,2.6-5.7,5-6.5L581.3,285z"/>
		
			<linearGradient id="SVGID_37_" gradientUnits="userSpaceOnUse" x1="581.3113" y1="2136.9937" x2="601.7267" y2="2178.4934" gradientTransform="matrix(1 0 0 1 0 -1854.2339)">
			<stop  offset="0" style="stop-color:#D33E20"/>
			<stop  offset="0.4263" style="stop-color:#D36922"/>
			<stop  offset="1" style="stop-color:#E8882A"/>
		</linearGradient>
		<path class="st56" d="M581.3,285c1.2-2.1,6.4-1.8,9.3-1.2c2.9,0.6,6.2,2.4,8.4,4.5c0.9,0.9,2.4,2.4,2.8,4.7c0.3,2.9-0.4,3,1.5,6.2
			c2,3.2-1.3,4.2,1.3,7.7c2.7,3.6,1.5,8.2-0.2,9.5c-0.2,5.1-4,6.7-5.5,6.9c-1.5,0.2-2.5-0.5-4.2-0.3c-1.7,0.3-2.5-0.2-3.8,0.3
			s-5.4,0-5.4,0s2.5-2.3,2.6-4c0.1-1.6,0.3-2.3,1.1-3.5c0.8-1.3,1.4-1.9,1.7-3.3s1-4.1,0.2-6c-0.3-2.4-0.6-0.3-0.3-7.6
			c0.3-7.3-7.6-11.9-7.6-11.9l-1.5-0.7L581.3,285z"/>
		<path class="st8" d="M587.7,299.2c0.1-0.7-0.3-1.2-0.7-1.3c-0.5,0-0.9,0.4-1,1.1s0.3,1.2,0.7,1.3
			C587.2,300.3,587.7,299.8,587.7,299.2z"/>
		<path class="st8" d="M578.8,299.3c0.1-0.6-0.2-1.1-0.7-1.2c-0.4,0-0.8,0.4-0.9,1c-0.1,0.6,0.2,1.1,0.7,1.2
			C578.3,300.4,578.7,299.9,578.8,299.3z"/>
		<path class="st8" d="M580.4,300.3c-1.9-2.4-2.8-2.6-3.7-0.1l-1.3-0.7l1,0.1C577.4,296.5,579.7,298.2,580.4,300.3z"/>
		<path class="st8" d="M585.2,299.7c1-2.2,2.3-2.2,4.7-0.1l2.2-1.3l-2,0.4C587.3,296.8,585.7,297,585.2,299.7z"/>
		<path class="st31" d="M584.5,296.6l0.3-0.9c0,0,2-0.6,2.9-0.5s2.5,0.5,3,1.1c0.1,0.3,0.2,0.6,0.2,0.9c-1-0.6-2.4-1-3.2-1.1
			C587,296,584.5,296.6,584.5,296.6z"/>
		<path class="st31" d="M580.1,296.8l-0.5-0.9c-1-0.2-1.5-0.2-2-0.2s-0.9,0.1-0.9,0.2v1c0.2-0.2,0.8-0.4,1-0.4
			C578.2,296.5,579,296.6,580.1,296.8z"/>
		
			<linearGradient id="SVGID_38_" gradientUnits="userSpaceOnUse" x1="583.3036" y1="2163.9272" x2="583.3096" y2="2165.2361" gradientTransform="matrix(1 0 0 1 0 -1854.2339)">
			<stop  offset="0" style="stop-color:#E29793"/>
			<stop  offset="1" style="stop-color:#E29793"/>
		</linearGradient>
		<path class="st57" d="M586.7,308.7c-1.2,1.2-2.5,2.5-4.5,2.4c-1.1-0.2-1.9-0.9-2.3-2C582.1,309.3,584.4,309.1,586.7,308.7z"/>
		
			<linearGradient id="SVGID_39_" gradientUnits="userSpaceOnUse" x1="583.2514" y1="2162.4395" x2="583.3504" y2="2163.854" gradientTransform="matrix(1 0 0 1 0 -1854.2339)">
			<stop  offset="0" style="stop-color:#E29793"/>
			<stop  offset="1" style="stop-color:#D68983"/>
		</linearGradient>
		<path class="st58" d="M582.5,309.1c0.8-0.8,2.8-0.7,4.2-0.4c-1.2,0.4-2.3,0.8-3.4,0.8l-0.9,0.3l-0.6-0.2c-0.8,0.1-1.4-0.2-1.9-0.5
			C580.8,308.7,581.7,308.5,582.5,309.1z"/>
		
			<linearGradient id="SVGID_40_" gradientUnits="userSpaceOnUse" x1="580.2302" y1="2156.1555" x2="587.6973" y2="2159.0178" gradientTransform="matrix(1 0 0 1 0 -1854.2339)">
			<stop  offset="0" style="stop-color:#E5A693"/>
			<stop  offset="1" style="stop-color:#D18675"/>
		</linearGradient>
		<path class="st59" d="M584.4,304.7l-1.2-1.9c0-0.1-0.1-0.1-0.1-0.2c0,0-0.6-3.8-1.1-3.6c-0.3,0.1-1,3.7-1,3.7v0.1l-1,1.8
			c-0.1,0.2,0,0.4,0.1,0.6l1.3,0.8c0.1,0,0.2,0.1,0.3,0l2.5-0.7C584.4,305.2,584.5,304.9,584.4,304.7z"/>
		<g>
			<g>
				<defs>
					<rect id="SVGID_41_" x="275.3" y="464.4" width="20.1" height="20.1"/>
				</defs>
				<clipPath id="SVGID_42_">
					<use xlink:href="#SVGID_41_"  style="overflow:visible;"/>
				</clipPath>
				<path class="st60" d="M294.4,464.4h-18c-0.6,0-1.1,0.5-1.1,1.1v18c0,0.6,0.5,1.1,1.1,1.1h18c0.6,0,1.1-0.5,1.1-1.1v-18
					C295.4,464.9,294.9,464.4,294.4,464.4z M281.1,477.8h-2.4c-0.1,0-0.2-0.1-0.3-0.2c-0.1-0.1-0.1-0.2,0-0.4l2.5-4.4l0,0l-1.6-2.8
					c-0.1-0.1-0.1-0.3,0-0.4s0.2-0.1,0.3-0.1h2.4c0.4,0,0.5,0.2,0.7,0.4l1.6,2.8c-0.1,0.2-2.5,4.5-2.5,4.5
					C281.6,477.5,281.5,477.8,281.1,477.8z M292.3,466.8l-5.2,9.2l0,0l3.3,6.1c0.1,0.1,0.1,0.3,0,0.4s-0.2,0.2-0.3,0.2h-2.4
					c-0.4,0-0.5-0.2-0.7-0.4c0,0-3.3-6.1-3.4-6.2c0.2-0.3,5.3-9.3,5.3-9.3c0.1-0.2,0.3-0.4,0.6-0.4h2.4c0.1,0,0.3,0.1,0.3,0.2
					C292.3,466.6,292.3,466.7,292.3,466.8z"/>
			</g>
		</g>
		<g>
			<g>
				<defs>
					<rect id="SVGID_43_" x="243.4" y="464.4" width="20.1" height="20.1"/>
				</defs>
				<clipPath id="SVGID_44_">
					<use xlink:href="#SVGID_43_"  style="overflow:visible;"/>
				</clipPath>
				<g class="st61">
					<g>
						<defs>
							<rect id="SVGID_45_" x="243.4" y="464.3" width="20.1" height="20.1"/>
						</defs>
						<clipPath id="SVGID_46_">
							<use xlink:href="#SVGID_45_"  style="overflow:visible;"/>
						</clipPath>
						<g class="st62">
							<path class="st1" d="M258,464.3h-9c-3.1,0-5.6,2.5-5.6,5.6v9c0,3.1,2.5,5.6,5.6,5.6h9c3.1,0,5.6-2.5,5.6-5.6v-9
								C263.5,466.8,261,464.3,258,464.3z M261.8,478.9c0,2.1-1.7,3.8-3.8,3.8h-9c-2.1,0-3.8-1.7-3.8-3.8v-9c0-2.1,1.7-3.8,3.8-3.8
								h9c2.1,0,3.8,1.7,3.8,3.8V478.9L261.8,478.9z"/>
							<path class="st1" d="M253.5,469.2c-2.9,0-5.2,2.3-5.2,5.2c0,2.9,2.3,5.2,5.2,5.2s5.2-2.3,5.2-5.2
								C258.7,471.6,256.3,469.2,253.5,469.2z M253.5,477.8c-1.9,0-3.4-1.5-3.4-3.4s1.5-3.4,3.4-3.4s3.4,1.5,3.4,3.4
								S255.4,477.8,253.5,477.8z"/>
							<path class="st1" d="M258.9,467.7c-0.3,0-0.7,0.1-0.9,0.4c-0.2,0.2-0.4,0.6-0.4,0.9s0.1,0.7,0.4,0.9c0.2,0.2,0.6,0.4,0.9,0.4
								s0.7-0.1,0.9-0.4c0.2-0.2,0.4-0.6,0.4-0.9s-0.1-0.7-0.4-0.9C259.6,467.9,259.2,467.7,258.9,467.7z"/>
						</g>
					</g>
				</g>
			</g>
		</g>
		<g>
			<g>
				<defs>
					<rect id="SVGID_47_" x="211.6" y="464.3" width="20.1" height="20.1"/>
				</defs>
				<clipPath id="SVGID_48_">
					<use xlink:href="#SVGID_47_"  style="overflow:visible;"/>
				</clipPath>
				<path class="st63" d="M230.2,464.3H213c-0.8,0-1.5,0.6-1.5,1.5V483c0,0.8,0.6,1.5,1.5,1.5h17.2c0.8,0,1.5-0.6,1.5-1.5v-17.2
					C231.7,465,231,464.3,230.2,464.3L230.2,464.3z M218.7,479.6h-2.5v-7.4h2.5V479.6z M217.5,471.2L217.5,471.2
					c-0.8,0-1.4-0.6-1.4-1.3c0-0.7,0.5-1.3,1.4-1.3c0.8,0,1.4,0.6,1.4,1.3S218.3,471.2,217.5,471.2z M227.5,479.6H225v-3.9
					c0-1-0.4-1.7-1.2-1.7c-0.7,0-1.1,0.5-1.3,0.9c-0.1,0.2-0.1,0.4-0.1,0.6v4.1H220c0,0,0-6.7,0-7.4h2.5v1c0.3-0.5,0.9-1.2,2.2-1.2
					c1.6,0,2.8,1.1,2.8,3.3V479.6z"/>
			</g>
		</g>
		<path class="st39" d="M213.9,418.3v9h-1.7v-9H213.9z M222.1,427.2h-5.9v-9h1.7v7.6h4L222.1,427.2z M229.3,427.2h-5.9v-9h1.7v7.6h4
			L229.3,427.2z M232.1,418.3v5.6c0,0.7,0.2,1.3,0.5,1.6c0.4,0.3,0.8,0.5,1.4,0.5c0.6,0,1-0.2,1.4-0.5c0.4-0.4,0.5-0.9,0.5-1.6v-5.6
			h1.7v5.7c0,1-0.3,1.8-1,2.4s-1.6,1-2.7,1c-1.1,0-2-0.3-2.7-1s-1-1.5-1-2.4v-5.7H232.1z M239.9,425.3c0.3,0.1,0.6,0.3,1,0.4
			s0.8,0.2,1.2,0.2c0.5,0,0.9-0.1,1.2-0.3c0.3-0.2,0.4-0.4,0.4-0.7c0-0.3-0.2-0.6-0.5-0.8c-0.4-0.2-0.7-0.5-1.2-0.7
			c-0.6-0.3-1.2-0.7-1.8-1.1s-0.9-1.1-0.9-1.8c0-0.7,0.3-1.2,0.8-1.7s1.3-0.7,2.3-0.7c0.4,0,0.9,0.1,1.3,0.2
			c0.4,0.1,0.8,0.3,1.2,0.5l-0.6,1.4c-0.3-0.1-0.6-0.3-0.9-0.4c-0.3-0.1-0.7-0.2-1.1-0.2c-0.4,0-0.7,0.1-1,0.2s-0.4,0.4-0.4,0.7
			c0,0.3,0.2,0.6,0.5,0.8c0.3,0.2,0.7,0.5,1.2,0.7c0.6,0.3,1.3,0.7,1.8,1.1c0.6,0.4,0.9,1,0.9,1.8c0,0.7-0.3,1.3-0.9,1.8
			c-0.6,0.5-1.4,0.7-2.5,0.7c-0.4,0-0.9-0.1-1.5-0.3c-0.6-0.2-1-0.3-1.2-0.5L239.9,425.3z M246.2,418.3h7.3l0.3,1.3h-3.1v7.6H249
			v-7.6h-2.7v-1.3H246.2z M257.6,419.7h-1.1v2.7h1.1c0.5,0,0.9-0.1,1.3-0.3c0.3-0.2,0.5-0.6,0.5-1c0-0.5-0.2-0.9-0.5-1.1
			C258.6,419.8,258.2,419.7,257.6,419.7z M260.1,427.2l-1.9-3.4c-0.1,0-0.2,0-0.3,0c-0.1,0-0.2,0-0.3,0h-1v3.4h-1.7v-9h2.8
			c1,0,1.8,0.2,2.5,0.7c0.7,0.4,1,1.1,1,2.1c0,0.6-0.1,1-0.4,1.4s-0.6,0.7-1.1,0.9l2.2,3.9H260.1z M266.3,420.6l-1.2,3.1h2.4
			L266.3,420.6z M267.1,418.3l3.5,8.7l-1.7,0.2l-0.8-2.1h-3.4l-0.8,2.1h-1.7l3.5-9L267.1,418.3L267.1,418.3z M270.7,418.3h7.3
			l0.3,1.3h-3.1v7.6h-1.7v-7.6h-2.7L270.7,418.3L270.7,418.3z M279.1,422.8c0-1.4,0.4-2.5,1.1-3.4s1.7-1.3,3-1.4
			c1.4,0,2.5,0.5,3.1,1.4c0.7,0.9,1,2,1,3.3c0,1.4-0.4,2.5-1.1,3.4s-1.7,1.3-3,1.3c-1.4,0-2.4-0.4-3.1-1.3
			C279.4,425.2,279.1,424.1,279.1,422.8z M280.9,422.8c0,0.9,0.2,1.7,0.6,2.3s1,0.9,1.8,0.9c0.7,0,1.3-0.3,1.7-0.8s0.6-1.4,0.6-2.5
			c0-0.9-0.2-1.7-0.6-2.3c-0.4-0.6-1-0.9-1.8-0.9c-0.7,0-1.3,0.3-1.7,0.9C281.1,421,280.9,421.8,280.9,422.8z M292,419.7h-1.1v2.7
			h1.1c0.5,0,0.9-0.1,1.3-0.3c0.3-0.2,0.5-0.6,0.5-1c0-0.5-0.2-0.9-0.5-1.1C293,419.8,292.5,419.7,292,419.7z M294.4,427.2l-1.9-3.4
			c-0.1,0-0.2,0-0.3,0c-0.1,0-0.2,0-0.3,0h-1v3.4h-1.7v-9h2.8c1,0,1.8,0.2,2.5,0.7c0.7,0.4,1,1.1,1,2.1c0,0.6-0.1,1-0.4,1.4
			s-0.6,0.7-1.1,0.9l2.2,3.9H294.4z M297.6,425.3c0.3,0,0.5,0.1,0.7,0.3c0.2,0.2,0.3,0.5,0.3,0.9c0,0.5-0.2,1-0.5,1.5
			s-0.7,1-1.2,1.2l-0.4-0.8c0.2-0.2,0.4-0.4,0.6-0.5c0.2-0.2,0.3-0.4,0.3-0.7c-0.1,0-0.3-0.1-0.5-0.3c-0.2-0.2-0.3-0.4-0.3-0.7
			s0.1-0.5,0.3-0.7C297.1,425.4,297.4,425.3,297.6,425.3z M306.4,422.3h3.3v4.4c-0.3,0.2-0.8,0.3-1.2,0.5c-0.5,0.1-1,0.2-1.6,0.2
			c-1.4,0-2.5-0.4-3.2-1.3s-1-2-1-3.3c0-1.4,0.4-2.5,1.2-3.4c0.8-0.9,1.9-1.3,3.2-1.3c0.3,0,0.6,0,1.1,0.1s0.9,0.2,1.3,0.4l-0.5,1.2
			c-0.4-0.1-0.7-0.2-1-0.3c-0.2-0.1-0.6-0.1-0.9-0.1c-0.8,0-1.4,0.3-1.9,0.8s-0.7,1.4-0.7,2.4s0.2,1.8,0.6,2.3
			c0.4,0.6,1,0.9,1.8,0.9c0.3,0,0.5,0,0.8,0c0.2,0,0.4-0.1,0.6-0.1v-2.2h-1.9L306.4,422.3z M314.5,419.7h-1.1v2.7h1.1
			c0.5,0,0.9-0.1,1.3-0.3c0.3-0.2,0.5-0.6,0.5-1c0-0.5-0.2-0.9-0.5-1.1C315.5,419.8,315.1,419.7,314.5,419.7z M316.9,427.2l-1.9-3.4
			c-0.1,0-0.2,0-0.3,0c-0.1,0-0.2,0-0.3,0h-1v3.4h-1.7v-9h2.8c1,0,1.8,0.2,2.5,0.7c0.7,0.4,1,1.1,1,2.1c0,0.6-0.1,1-0.4,1.4
			s-0.6,0.7-1.1,0.9l2.2,3.9H316.9z M323.2,420.6l-1.2,3.1h2.4L323.2,420.6z M323.9,418.3l3.5,8.7l-1.7,0.2l-0.8-2.1h-3.4l-0.8,2.1
			H319l3.5-9L323.9,418.3L323.9,418.3z M332.8,423.4h-2.5v3.8h-1.7v-9h5.1l0.3,1.3h-3.6v2.5h2.3L332.8,423.4z M336.9,418.3v9h-1.7
			v-9H336.9z M340.7,418.3v3.8l3.4-4l1.3,1l-2.7,3.1l3.7,5.1h-2.1l-2.7-3.8l-0.8,1v2.8H339v-9H340.7z M350.8,427.3L350.8,427.3h-3.3
			v-9h3.3c1.4,0,2.4,0.4,3.1,1.3c0.7,0.8,1,1.9,1,3.2c0,1.4-0.4,2.5-1.1,3.3S352.1,427.2,350.8,427.3z M350.8,419.7h-1.6v6.1h1.5
			c0.7,0,1.3-0.2,1.7-0.7c0.4-0.5,0.7-1.3,0.7-2.4c0-0.9-0.2-1.7-0.6-2.2C352.2,420,351.6,419.7,350.8,419.7z M363.1,427.2h-6.3v-9
			h5.4l0.3,1.3h-3.9v2.4h2.4l0.3,1.4h-2.7v2.5h4.3L363.1,427.2z M364.4,425.3c0.3,0.1,0.6,0.3,1,0.4s0.8,0.2,1.2,0.2
			c0.5,0,0.9-0.1,1.2-0.3c0.3-0.2,0.4-0.4,0.4-0.7c0-0.3-0.2-0.6-0.5-0.8c-0.4-0.2-0.7-0.5-1.2-0.7c-0.6-0.3-1.2-0.7-1.8-1.1
			c-0.6-0.4-0.9-1.1-0.9-1.8c0-0.7,0.3-1.2,0.8-1.7s1.3-0.7,2.3-0.7c0.4,0,0.9,0.1,1.3,0.2s0.8,0.3,1.2,0.5l-0.6,1.4
			c-0.3-0.1-0.6-0.3-0.9-0.4s-0.7-0.2-1.1-0.2s-0.7,0.1-1,0.2s-0.4,0.4-0.4,0.7c0,0.3,0.2,0.6,0.5,0.8c0.3,0.2,0.7,0.5,1.2,0.7
			c0.6,0.3,1.3,0.7,1.8,1.1c0.6,0.4,0.9,1,0.9,1.8c0,0.7-0.3,1.3-0.9,1.8s-1.4,0.7-2.5,0.7c-0.4,0-0.9-0.1-1.5-0.3
			c-0.6-0.2-1-0.3-1.2-0.5L364.4,425.3z M373.4,418.3v9h-1.7v-9H373.4z M379,422.3h3.3v4.4c-0.3,0.2-0.8,0.3-1.2,0.5
			c-0.5,0.1-1,0.2-1.6,0.2c-1.4,0-2.5-0.4-3.2-1.3s-1-2-1-3.3c0-1.4,0.4-2.5,1.2-3.4c0.8-0.9,1.9-1.3,3.2-1.3c0.3,0,0.6,0,1.1,0.1
			s0.9,0.2,1.3,0.4l-0.5,1.2c-0.4-0.1-0.7-0.2-1-0.3c-0.2-0.1-0.5-0.1-0.9-0.1c-0.8,0-1.4,0.3-1.9,0.8s-0.7,1.4-0.7,2.4
			s0.2,1.8,0.6,2.3c0.4,0.6,1,0.9,1.8,0.9c0.3,0,0.5,0,0.8,0c0.2,0,0.4-0.1,0.6-0.1v-2.2H379L379,422.3z M391.9,418.3v9h-1.7l-4.2-6
			v6h-1.7v-9h1.7l4.2,6v-6H391.9z M400.4,427.2h-6.3v-9h5.4l0.3,1.3h-3.9v2.4h2.4l0.3,1.4h-2.7v2.5h4.3L400.4,427.2z M404.5,419.7
			h-1.1v2.7h1.1c0.5,0,0.9-0.1,1.3-0.3c0.3-0.2,0.5-0.6,0.5-1c0-0.5-0.2-0.9-0.5-1.1S405.1,419.7,404.5,419.7z M407,427.2l-1.9-3.4
			c-0.1,0-0.2,0-0.3,0c-0.1,0-0.2,0-0.3,0h-1v3.4h-1.7v-9h2.8c1,0,1.8,0.2,2.5,0.7c0.7,0.4,1,1.1,1,2.1c0,0.6-0.1,1-0.4,1.4
			s-0.6,0.7-1.1,0.9l2.2,3.9H407z M217.2,434.5c-0.3-0.1-0.6-0.3-0.9-0.4c-0.3-0.1-0.6-0.2-1-0.2c-0.3,0-0.6,0.1-0.8,0.3
			c-0.2,0.2-0.3,0.4-0.3,0.7c0,0.3,0.1,0.5,0.3,0.8s0.4,0.5,0.8,0.9l2.1,1.9c0.1-0.3,0.2-0.6,0.3-0.9s0.1-0.7,0.1-1l1.5,0.6
			c0,0.5-0.1,0.9-0.2,1.3c-0.1,0.4-0.2,0.8-0.4,1.2l1,0.9l-1,1.3l-1-0.9c-0.3,0.3-0.7,0.5-1.2,0.6c-0.4,0.1-1,0.2-1.5,0.2
			c-1,0-1.8-0.3-2.5-0.8s-1-1.3-1-2.3c0-0.5,0.1-0.9,0.4-1.4c0.2-0.4,0.5-0.8,0.9-1.2c-0.1-0.2-0.2-0.4-0.3-0.6s-0.1-0.4-0.1-0.7
			c0-0.7,0.3-1.3,0.8-1.8s1.2-0.8,2-0.8c0.4,0,0.9,0.1,1.3,0.2c0.4,0.1,0.8,0.3,1.2,0.5L217.2,434.5z M213.5,438.7
			c0,0.5,0.2,0.9,0.5,1.2c0.4,0.2,0.7,0.4,1.2,0.4c0.3,0,0.5,0,0.8-0.1s0.5-0.2,0.7-0.3l-2.3-2.1l-0.3-0.3c-0.2,0.2-0.3,0.4-0.4,0.6
			C213.6,438.3,213.5,438.5,213.5,438.7z M232.2,441.6l-2.1-6.4l-2,6.4h-1.5l-3.1-8.7l1.7-0.2l2.2,6.5l2-6.5h1.6l2.2,6.5l2.1-6.5
			h1.7l-3.2,9L232.2,441.6L232.2,441.6z M244.3,441.6H238v-9h5.4l0.3,1.3h-3.9v2.4h2.4l0.3,1.4h-2.7v2.5h4.3L244.3,441.6z
			 M249.1,432.7c0.9,0,1.6,0.2,2.1,0.6s0.8,1,0.8,1.9c0,0.3-0.1,0.6-0.2,0.9c-0.1,0.3-0.3,0.5-0.6,0.7c0.4,0.2,0.7,0.5,1,0.9
			s0.4,0.8,0.4,1.4c0,0.8-0.3,1.5-0.9,1.9c-0.6,0.5-1.3,0.7-2.3,0.7h-3.7v-9H249.1z M248.8,434.1h-1.4v2.2h1.3
			c0.5,0,0.8-0.1,1.1-0.3c0.3-0.2,0.4-0.5,0.4-0.9s-0.1-0.7-0.4-0.9C249.6,434.2,249.3,434.1,248.8,434.1z M249.4,437.7h-2v2.5h1.8
			c0.5,0,0.8-0.1,1.1-0.3c0.3-0.2,0.4-0.5,0.4-0.9s-0.1-0.7-0.4-1C250.1,437.8,249.8,437.7,249.4,437.7z M257.6,441.7L257.6,441.7
			h-3.3v-9h3.3c1.4,0,2.4,0.4,3.1,1.3c0.7,0.8,1,1.9,1,3.2c0,1.4-0.4,2.5-1.1,3.3C259.9,441.2,258.9,441.6,257.6,441.7z
			 M257.7,434.1H256v6.1h1.5c0.7,0,1.3-0.2,1.7-0.7c0.4-0.5,0.7-1.3,0.7-2.4c0-0.9-0.2-1.7-0.6-2.2S258.4,434.1,257.7,434.1z
			 M269.9,441.6h-6.3v-9h5.4l0.3,1.3h-3.9v2.4h2.4l0.3,1.4h-2.7v2.5h4.3L269.9,441.6z M271.3,439.7c0.3,0.1,0.6,0.3,1,0.4
			s0.8,0.2,1.2,0.2c0.5,0,0.9-0.1,1.2-0.3c0.3-0.2,0.4-0.4,0.4-0.7c0-0.3-0.2-0.6-0.5-0.8c-0.4-0.2-0.7-0.5-1.2-0.7
			c-0.6-0.3-1.2-0.7-1.8-1.1c-0.6-0.4-0.9-1.1-0.9-1.8c0-0.7,0.3-1.2,0.8-1.7s1.3-0.7,2.3-0.7c0.4,0,0.9,0.1,1.3,0.2
			s0.8,0.3,1.2,0.5l-0.6,1.4c-0.3-0.1-0.6-0.3-0.9-0.4s-0.7-0.2-1.1-0.2s-0.7,0.1-1,0.2s-0.4,0.4-0.4,0.7c0,0.3,0.2,0.6,0.5,0.8
			c0.3,0.2,0.7,0.5,1.2,0.7c0.6,0.3,1.3,0.7,1.8,1.1c0.6,0.4,0.9,1,0.9,1.8c0,0.7-0.3,1.3-0.9,1.8s-1.4,0.7-2.5,0.7
			c-0.4,0-0.9-0.1-1.5-0.3c-0.6-0.2-1-0.3-1.2-0.5L271.3,439.7z M280.2,432.7v9h-1.7v-9H280.2z M285.8,436.7h3.3v4.4
			c-0.3,0.2-0.8,0.3-1.2,0.5c-0.5,0.1-1,0.2-1.6,0.2c-1.4,0-2.5-0.4-3.2-1.3s-1-2-1-3.3c0-1.4,0.4-2.5,1.2-3.4
			c0.8-0.9,1.9-1.3,3.2-1.3c0.3,0,0.6,0,1.1,0.1s0.9,0.2,1.3,0.4l-0.5,1.2c-0.4-0.1-0.7-0.2-1-0.3c-0.2-0.1-0.6-0.1-0.9-0.1
			c-0.8,0-1.4,0.3-1.9,0.8s-0.7,1.4-0.7,2.4s0.2,1.8,0.6,2.3c0.4,0.6,1,0.9,1.8,0.9c0.3,0,0.5,0,0.8,0c0.2,0,0.4-0.1,0.6-0.1v-2.2
			h-1.9L285.8,436.7z M298.7,432.7v9H297l-4.2-6v6h-1.7v-9h1.7l4.2,6v-6H298.7z M307.2,441.6h-6.3v-9h5.4l0.3,1.3h-3.9v2.4h2.4
			l0.3,1.4h-2.7v2.5h4.3L307.2,441.6z M311.3,434.1h-1.1v2.7h1.1c0.5,0,0.9-0.1,1.3-0.3c0.3-0.2,0.5-0.6,0.5-1
			c0-0.5-0.2-0.9-0.5-1.1S311.9,434.1,311.3,434.1z M313.8,441.6l-1.9-3.4c-0.1,0-0.2,0-0.3,0c-0.1,0-0.2,0-0.3,0h-1v3.4h-1.7v-9
			h2.8c1,0,1.8,0.2,2.5,0.7c0.7,0.4,1,1.1,1,2.1c0,0.6-0.1,1-0.4,1.4s-0.6,0.7-1.1,0.9l2.2,3.9H313.8z"/>
		<path class="st39" d="M213.9,405.5c-0.8,0-1.5-0.1-2.1-0.2v-4.1c0.4,0.1,0.9,0.2,1.5,0.2c0.9,0,1.6-0.2,2-0.7s0.7-1.2,0.7-2.1
			v-22.2h4.6v22.1c0,2.4-0.6,4.1-1.7,5.3C217.8,404.9,216.1,405.5,213.9,405.5z M223.8,376.3h12.4v4.1h-7.9v7.7h6.3v4.1h-6.3v8.9
			h7.9v4.1h-12.4V376.3z M244.8,405.7c-2.2,0-3.9-0.6-5-1.9s-1.7-3.1-1.7-5.4v-1.7h4.3v2c0,1.9,0.8,2.8,2.4,2.8
			c0.8,0,1.4-0.2,1.7-0.7c0.4-0.5,0.6-1.2,0.6-2.2c0-1.2-0.3-2.3-0.8-3.2c-0.6-0.9-1.6-2.1-3.1-3.4c-1.9-1.7-3.2-3.1-3.9-4.5
			s-1.1-2.9-1.1-4.6c0-2.3,0.6-4.1,1.7-5.3c1.2-1.3,2.8-1.9,5.1-1.9c2.2,0,3.8,0.6,4.9,1.9c1.1,1.2,1.7,3,1.7,5.4v1.2h-4.3v-1.5
			c0-1-0.2-1.7-0.6-2.2c-0.4-0.5-1-0.7-1.7-0.7c-1.5,0-2.3,0.9-2.3,2.8c0,1,0.3,2,0.8,2.9c0.6,0.9,1.6,2,3.1,3.3
			c1.9,1.7,3.2,3.2,3.9,4.5c0.7,1.4,1.1,2.9,1.1,4.8c0,2.4-0.6,4.2-1.8,5.5C248.8,405.1,247.1,405.7,244.8,405.7z M260.2,405.7
			c-2.2,0-3.9-0.6-5-1.9s-1.7-3.1-1.7-5.4v-1.7h4.3v2c0,1.9,0.8,2.8,2.4,2.8c0.8,0,1.4-0.2,1.7-0.7c0.4-0.5,0.6-1.2,0.6-2.2
			c0-1.2-0.3-2.3-0.8-3.2c-0.6-0.9-1.6-2.1-3.1-3.4c-1.9-1.7-3.2-3.1-3.9-4.5s-1.1-2.9-1.1-4.6c0-2.3,0.6-4.1,1.7-5.3
			c1.2-1.3,2.8-1.9,5.1-1.9c2.2,0,3.8,0.6,4.9,1.9c1.1,1.2,1.7,3,1.7,5.4v1.2h-4.3v-1.5c0-1-0.2-1.7-0.6-2.2s-1-0.7-1.7-0.7
			c-1.5,0-2.3,0.9-2.3,2.8c0,1,0.3,2,0.8,2.9c0.6,0.9,1.6,2,3.1,3.3c1.9,1.7,3.2,3.2,3.9,4.5c0.7,1.4,1.1,2.9,1.1,4.8
			c0,2.4-0.6,4.2-1.8,5.5C264.2,405.1,262.5,405.7,260.2,405.7z M269.7,376.3h4.6v29h-4.6V376.3z M284.1,405.7c-2.2,0-3.9-0.6-5-1.9
			c-1.1-1.2-1.7-3-1.7-5.3V383c0-2.3,0.6-4,1.7-5.3c1.2-1.2,2.8-1.9,5-1.9s3.8,0.6,5,1.9c1.2,1.2,1.7,3,1.7,5.3v3.1h-4.3v-3.4
			c0-1.8-0.8-2.7-2.3-2.7s-2.3,0.9-2.3,2.7v16.2c0,1.8,0.8,2.6,2.3,2.6s2.3-0.9,2.3-2.6v-4.4h4.3v4.1c0,2.3-0.6,4-1.7,5.3
			C287.9,405.1,286.3,405.7,284.1,405.7z M297,376.3h6.2l4.7,29h-4.6l-0.8-5.8v0.1h-5.2l-0.8,5.7h-4.2L297,376.3z M302,395.7
			l-2-14.3h-0.1l-2,14.3H302z M316.8,376.3h4.6v11.8h4.9v-11.8h4.6v29h-4.6v-13h-4.9v13h-4.6V376.3z M334.2,376.3h12.4v4.1h-7.9v7.7
			h6.3v4.1h-6.3v8.9h7.9v4.1h-12.4V376.3z M349.2,376.3h4.6v29h-4.6V376.3z M357.2,376.3h5.7l4.4,17.3h0.1v-17.3h4.1v29h-4.7
			l-5.5-21.2h-0.1v21.2h-4.1v-29H357.2z"/>
		<rect x="211.6" y="453.4" class="st64" width="39.4" height="0.8"/>
		<path class="st65" d="M504.2,230.1h227.4c0.7,0,1.2,0.5,1.2,1.2v19.5c0,0.7-0.5,1.2-1.2,1.2H504.2c-0.7,0-1.2-0.5-1.2-1.2v-19.5
			C503,230.6,503.6,230.1,504.2,230.1z"/>
		<path class="st66" d="M512.8,237.8h1.1v2.7h1.1v-2.7h1.1v6.7H515v-3h-1.1v3h-1.1L512.8,237.8L512.8,237.8z M518.3,244.6
			c-0.5,0-0.9-0.1-1.2-0.4c-0.3-0.3-0.4-0.7-0.4-1.2v-3.5c0-0.5,0.1-1,0.4-1.2c0.3-0.3,0.7-0.4,1.2-0.4s0.9,0.1,1.2,0.4
			c0.3,0.3,0.4,0.7,0.4,1.2v3.5c0,0.5-0.1,1-0.4,1.2C519.3,244.5,518.9,244.6,518.3,244.6z M518.3,243.6c0.4,0,0.5-0.2,0.5-0.7v-3.7
			c0-0.4-0.2-0.7-0.5-0.7c-0.4,0-0.5,0.2-0.5,0.7v3.7C517.8,243.4,518,243.6,518.3,243.6z M520.7,237.8h1.5l0.7,4.8l0,0l0.7-4.8h1.5
			v6.7h-1v-5.1l0,0l-0.8,5.1h-0.9l-0.8-5.1l0,0v5.1h-0.9V237.8z M525.8,237.8h2.9v1h-1.8v1.8h1.4v1h-1.4v2.1h1.8v1h-2.9V237.8z
			 M549.3,244.6c-0.5,0-0.9-0.1-1.2-0.4c-0.3-0.3-0.4-0.7-0.4-1.3v-5.1h1.1v5.2c0,0.2,0,0.4,0.1,0.5s0.2,0.2,0.4,0.2
			s0.3-0.1,0.4-0.2c0.1-0.1,0.1-0.3,0.1-0.5v-5.2h1v5.1c0,0.5-0.1,1-0.4,1.3C550.2,244.5,549.8,244.6,549.3,244.6z M548.1,236.4h0.9
			v1h-0.9V236.4z M549.6,236.4h0.9v1h-0.9V236.4z M551.6,237.8h1.6c0.5,0,0.9,0.1,1.2,0.4c0.2,0.2,0.4,0.6,0.4,1.2v0.3
			c0,0.3-0.1,0.6-0.2,0.8c-0.1,0.2-0.3,0.4-0.5,0.5l0,0c0.5,0.2,0.8,0.6,0.8,1.4v0.6c0,0.5-0.1,0.9-0.4,1.2
			c-0.3,0.3-0.7,0.4-1.2,0.4h-1.7L551.6,237.8L551.6,237.8z M553.1,240.5c0.2,0,0.4-0.1,0.5-0.2c0.1-0.1,0.2-0.3,0.2-0.5v-0.4
			c0-0.2,0-0.4-0.1-0.5s-0.2-0.2-0.4-0.2h-0.5v1.8L553.1,240.5L553.1,240.5z M553.3,243.5c0.2,0,0.3,0,0.4-0.1
			c0.1-0.1,0.1-0.3,0.1-0.5v-0.6c0-0.3-0.1-0.5-0.2-0.6c-0.1-0.1-0.3-0.2-0.5-0.2h-0.5v2.1L553.3,243.5L553.3,243.5z M555.5,237.8
			h2.9v1h-1.8v1.8h1.5v1h-1.5v2.1h1.8v1h-2.9V237.8z M559,237.8h1.6c0.5,0,0.9,0.1,1.2,0.4c0.3,0.2,0.4,0.6,0.4,1.2v0.4
			c0,0.7-0.2,1.1-0.7,1.3l0,0c0.3,0.1,0.4,0.2,0.5,0.5c0.1,0.2,0.2,0.6,0.2,1v1.2c0,0.2,0,0.3,0,0.5c0,0.1,0,0.2,0.1,0.3h-1.1
			c0-0.1-0.1-0.2-0.1-0.3s0-0.3,0-0.5v-1.2c0-0.3-0.1-0.5-0.2-0.6c-0.1-0.1-0.3-0.2-0.5-0.2H560v2.9h-1V237.8z M560.4,240.7
			c0.2,0,0.4-0.1,0.5-0.2c0.1-0.1,0.2-0.3,0.2-0.5v-0.5c0-0.2,0-0.4-0.1-0.5s-0.2-0.2-0.4-0.2H560v1.9H560.4z M564.4,237.8h1.5
			l0.7,4.8l0,0l0.7-4.8h1.5v6.7h-1v-5.1l0,0l-0.8,5.1h-0.9l-0.8-5.1l0,0v5.1h-0.9V237.8z M569.6,237.8h1.1v6.7h-1.1V237.8z
			 M572.9,244.6c-0.5,0-0.9-0.1-1.2-0.4c-0.3-0.3-0.4-0.7-0.4-1.2v-3.6c0-0.5,0.1-0.9,0.4-1.2c0.3-0.3,0.7-0.4,1.2-0.4
			s0.9,0.1,1.2,0.4c0.3,0.3,0.4,0.7,0.4,1.2v0.7h-1v-0.8c0-0.4-0.2-0.6-0.5-0.6c-0.4,0-0.5,0.2-0.5,0.6v3.8c0,0.4,0.2,0.6,0.5,0.6
			c0.4,0,0.5-0.2,0.5-0.6v-1h1v1c0,0.5-0.1,0.9-0.4,1.2C573.8,244.5,573.4,244.6,572.9,244.6z M575.1,237.8h1.1v2.7h1.1v-2.7h1.1
			v6.7h-1.1v-3h-1.1v3h-1.1V237.8z M597.6,237.8h1.1v5.8h1.7v1h-2.8V237.8z M600.9,237.8h2.9v1H602v1.8h1.5v1H602v2.1h1.8v1h-2.9
			V237.8z M604.4,237.8h1.1v6.7h-1.1V237.8z M607.6,244.6c-0.5,0-0.9-0.1-1.2-0.4c-0.3-0.3-0.4-0.7-0.4-1.3v-0.4h1v0.5
			c0,0.4,0.2,0.7,0.5,0.7c0.2,0,0.3-0.1,0.4-0.2c0.1-0.1,0.1-0.3,0.1-0.5c0-0.3-0.1-0.5-0.2-0.7c-0.1-0.2-0.4-0.5-0.7-0.8
			c-0.4-0.4-0.7-0.7-0.9-1s-0.3-0.7-0.3-1.1c0-0.5,0.1-0.9,0.4-1.2c0.3-0.3,0.7-0.4,1.2-0.4s0.9,0.1,1.1,0.4
			c0.3,0.3,0.4,0.7,0.4,1.2v0.3h-1v-0.3c0-0.2,0-0.4-0.1-0.5s-0.2-0.2-0.4-0.2c-0.4,0-0.5,0.2-0.5,0.6c0,0.2,0.1,0.5,0.2,0.7
			c0.1,0.2,0.4,0.5,0.7,0.8c0.4,0.4,0.7,0.7,0.9,1s0.2,0.7,0.2,1.1c0,0.6-0.1,1-0.4,1.3C608.5,244.5,608.1,244.6,607.6,244.6z
			 M610.6,238.7h-1.1v-1h3.3v1h-1.1v5.8h-1.1L610.6,238.7L610.6,238.7z M614.8,244.6c-0.5,0-0.9-0.1-1.2-0.4
			c-0.3-0.3-0.4-0.7-0.4-1.3v-5.1h1.1v5.2c0,0.2,0,0.4,0.1,0.5s0.2,0.2,0.4,0.2s0.3-0.1,0.4-0.2c0.1-0.1,0.1-0.3,0.1-0.5v-5.2h1v5.1
			c0,0.5-0.1,1-0.4,1.3C615.7,244.5,615.3,244.6,614.8,244.6z M617.1,237.8h1.3l1,4l0,0v-4h0.9v6.7h-1.1l-1.3-4.9l0,0v4.9H617
			L617.1,237.8L617.1,237.8z M622.7,244.6c-0.5,0-0.9-0.1-1.2-0.4c-0.3-0.3-0.4-0.7-0.4-1.3v-3.5c0-0.5,0.1-1,0.4-1.2
			c0.3-0.3,0.7-0.4,1.2-0.4s0.9,0.1,1.2,0.4c0.3,0.3,0.4,0.7,0.4,1.2v0.6h-1v-0.6c0-0.4-0.2-0.7-0.5-0.7c-0.4,0-0.5,0.2-0.5,0.7v3.7
			c0,0.4,0.2,0.7,0.5,0.7c0.4,0,0.5-0.2,0.5-0.7v-1.3h-0.5v-1h1.5v2.2c0,0.5-0.1,1-0.4,1.3C623.6,244.5,623.2,244.6,622.7,244.6z
			 M625,237.8h2.9v1H626v1.8h1.4v1H626v2.1h1.8v1H625V237.8z M628.5,237.8h1.3l1,4l0,0v-4h0.9v6.7h-1.1l-1.3-4.9l0,0v4.9h-0.9
			L628.5,237.8L628.5,237.8z M651.8,237.8h1.4l1.1,6.7h-1.1l-0.2-1.3l0,0h-1.2l-0.2,1.3h-1L651.8,237.8z M653,242.3l-0.5-3.3l0,0
			l-0.5,3.3H653z M654.9,237.8h1.6c0.5,0,0.9,0.1,1.2,0.4c0.2,0.2,0.4,0.6,0.4,1.2v0.4c0,0.7-0.2,1.1-0.7,1.3l0,0
			c0.3,0.1,0.4,0.2,0.5,0.5c0.1,0.2,0.2,0.6,0.2,1v1.2c0,0.2,0,0.3,0,0.5c0,0.1,0,0.2,0.1,0.3H657c0-0.1-0.1-0.2-0.1-0.3
			s0-0.3,0-0.5v-1.2c0-0.3-0.1-0.5-0.2-0.6c-0.1-0.1-0.3-0.2-0.5-0.2h-0.4v2.9h-1.1v-6.9H654.9z M656.3,240.7c0.2,0,0.4-0.1,0.5-0.2
			c0.1-0.1,0.2-0.3,0.2-0.5v-0.5c0-0.2,0-0.4-0.1-0.5s-0.2-0.2-0.4-0.2H656v1.9H656.3z M658.7,237.8h1.6c0.5,0,0.9,0.1,1.2,0.4
			c0.2,0.2,0.4,0.6,0.4,1.2v0.3c0,0.3-0.1,0.6-0.2,0.8c-0.1,0.2-0.3,0.4-0.5,0.5l0,0c0.5,0.2,0.8,0.6,0.8,1.4v0.6
			c0,0.5-0.1,0.9-0.4,1.2c-0.3,0.3-0.7,0.4-1.2,0.4h-1.7L658.7,237.8L658.7,237.8z M660.2,240.5c0.2,0,0.4-0.1,0.5-0.2
			c0.1-0.1,0.2-0.3,0.2-0.5v-0.4c0-0.2,0-0.4-0.1-0.5s-0.2-0.2-0.4-0.2h-0.5v1.8L660.2,240.5L660.2,240.5z M660.4,243.5
			c0.2,0,0.3,0,0.4-0.1c0.1-0.1,0.1-0.3,0.1-0.5v-0.6c0-0.3-0.1-0.5-0.2-0.6c-0.1-0.1-0.3-0.2-0.5-0.2h-0.5v2.1L660.4,243.5
			L660.4,243.5z M662.6,237.8h2.9v1h-1.8v1.8h1.4v1h-1.4v2.1h1.8v1h-2.9V237.8z M666.1,237.8h1.1v6.7h-1.1V237.8z M668.8,238.7h-1.1
			v-1h3.3v1h-1.1v5.8h-1.1L668.8,238.7L668.8,238.7z M671.5,237.8h2.9v1h-1.8v1.8h1.5v1h-1.5v2.1h1.8v1h-2.9V237.8z M674.9,237.8
			h1.3l1,4l0,0v-4h0.9v6.7H677l-1.3-4.9l0,0v4.9h-0.9L674.9,237.8L674.9,237.8z M697.5,237.8h1.1v2.8l1.3-2.8h1.1l-1.3,2.5l1.3,4.3
			h-1.1l-0.9-3l-0.4,0.9v2.1h-1.1L697.5,237.8L697.5,237.8z M702.8,244.6c-0.5,0-0.9-0.1-1.2-0.4c-0.3-0.3-0.4-0.7-0.4-1.2v-3.5
			c0-0.5,0.1-1,0.4-1.2c0.3-0.3,0.7-0.4,1.2-0.4s0.9,0.1,1.2,0.4c0.3,0.3,0.4,0.7,0.4,1.2v3.5c0,0.5-0.1,1-0.4,1.2
			C703.8,244.5,703.4,244.6,702.8,244.6z M702.8,243.6c0.4,0,0.5-0.2,0.5-0.7v-3.7c0-0.4-0.2-0.7-0.5-0.7c-0.4,0-0.5,0.2-0.5,0.7
			v3.7C702.3,243.4,702.5,243.6,702.8,243.6z M705.2,237.8h1.3l1,4l0,0v-4h0.9v6.7h-1.1l-1.3-4.9l0,0v4.9h-0.9L705.2,237.8
			L705.2,237.8z M710.1,238.7H709v-1h3.3v1h-1.1v5.8h-1.1L710.1,238.7L710.1,238.7z M713.1,237.8h1.4l1.1,6.7h-1.1l-0.2-1.3l0,0
			h-1.2l-0.2,1.3h-1L713.1,237.8z M714.3,242.3l-0.5-3.3l0,0l-0.5,3.3H714.3z M716.2,237.8h1.1v2.8l1.3-2.8h1.1l-1.3,2.5l1.3,4.3
			h-1.1l-0.9-3l-0.4,0.9v2.1h-1.1L716.2,237.8L716.2,237.8z M721,238.7h-1.1v-1h3.3v1H722v5.8h-1V238.7z"/>
		<path class="st1" d="M167.3,251.9v-3.1c0.4,0.1,0.8,0.1,1.3,0.1c0.8,0,1.3-0.2,1.7-0.5s0.6-0.9,0.6-1.6v-16.7h3.8v16.6
			c0,1.8-0.5,3.1-1.4,4s-2.3,1.3-4.2,1.3C168.4,252,167.8,252,167.3,251.9z"/>
		<path class="st39" d="M185.8,230.1h10.5v3.1h-6.6v5.8h5.3v3.1h-5.3v6.7h6.6v3.1h-10.5V230.1z"/>
		<path class="st39" d="M198.9,230.1h3.8V252h-3.8V230.1z"/>
		<path class="st39" d="M205.4,230.1h4.8l3.7,13.1h0.1v-13.1h3.4V252h-3.9l-4.6-16h-0.1v16h-3.4V230.1L205.4,230.1z"/>
		<path class="st39" d="M179.3,230.1v8.9h-4v3.1h4v9.9h3.8v-21.9H179.3z"/>
		<rect x="512.8" y="237.8" class="st39" width="15.9" height="6.7"/>
		<rect x="547.7" y="237.8" class="st39" width="30.6" height="6.8"/>
		<rect x="597.6" y="237.8" class="st39" width="34.2" height="6.7"/>
		<rect x="650.7" y="237.8" class="st39" width="27.5" height="6.7"/>
		<rect x="697.5" y="237.8" class="st39" width="25.6" height="6.7"/>
	</g>
</g>
<g id="Buch">
	<ellipse id="Schatten_2_" class="st2" cx="189.9" cy="704.9" rx="103.4" ry="5"/>
	<path id="Buchrücken" class="st39" d="M102.3,704.9h-9.8c-0.6,0-1-0.4-1-1V444.6c0-0.6,0.4-1,1-1h9.8V704.9z"/>
	<path id="Buch_1_" class="st64" d="M102.3,704.9h170.4c2.8,0,5-2.2,5-5V448.6c0-2.8-2.2-5-5-5H102.3V704.9z"/>
	<g id="Logo_2_">
		<path class="st38" d="M158.1,514.1v-4.4c0.5,0.1,1,0.2,1.6,0.2c1,0,1.7-0.2,2.2-0.7s0.7-1.2,0.7-2.2v-23.8h4.9v23.7
			c0,2.6-0.6,4.4-1.8,5.7c-1.2,1.2-3,1.9-5.4,1.9C159.4,514.3,158.7,514.2,158.1,514.1z"/>
		<path class="st38" d="M181.5,483.1h13.3v4.5h-8.4v8.3h6.7v4.5h-6.7v9.6h8.4v4.5h-13.3V483.1z"/>
		<path class="st38" d="M198.2,483.1h4.9v31.2h-4.9V483.1z"/>
		<path class="st38" d="M206.5,483.1h6.1l4.8,18.7h0.1v-18.7h4.3v31.2h-5l-5.9-22.8h-0.1v22.8h-4.3L206.5,483.1L206.5,483.1z"/>
		<polygon class="st38" points="173.2,483.1 173.2,495.8 168.2,495.8 168.2,500.2 173.2,500.2 173.2,514.3 178.1,514.3 178.1,483.1 
					"/>
	</g>
	<rect x="157.4" y="519.4" class="st67" width="65.5" height="7.2"/>
	<g class="st68">
		<path class="st38" d="M158.2,525.2c0.2,0.1,0.4,0.2,0.8,0.3c0.3,0.1,0.6,0.1,0.9,0.1c0.4,0,0.8-0.1,1-0.2s0.3-0.4,0.3-0.6
			c0-0.6-0.6-1.1-1.7-1.4s-1.7-1-1.7-2c0-0.5,0.2-0.9,0.6-1.3c0.4-0.4,1-0.5,1.7-0.5c0.3,0,0.7,0,1,0.2c0.3,0.1,0.6,0.2,0.9,0.3
			c-0.1,0.2-0.1,0.3-0.2,0.5c-0.1,0.2-0.1,0.3-0.2,0.4c-0.2-0.1-0.4-0.2-0.6-0.3s-0.5-0.1-0.8-0.1c-0.3,0-0.6,0.1-0.9,0.2
			c-0.2,0.1-0.4,0.3-0.4,0.6c0,0.6,0.6,1.1,1.7,1.5c1.1,0.3,1.7,1,1.7,2c0,0.5-0.2,1-0.6,1.3c-0.4,0.3-1,0.5-1.9,0.5
			c-0.3,0-0.6-0.1-1.1-0.2c-0.4-0.1-0.7-0.2-0.9-0.4L158.2,525.2z"/>
		<path class="st38" d="M167.7,526.5l-2.3-3l-0.7,0.8v2.2h-1.1v-6.8h1.1v3l2.7-3.2l0.8,0.7l-2.1,2.4l2.9,3.9H167.7z"/>
		<path class="st38" d="M170,526.5v-6.8h1.1v6.8H170z"/>
		<path class="st38" d="M177.6,526.5h-5.2c0-0.1-0.1-0.3-0.1-0.4c0-0.1,0-0.3-0.1-0.4c0.7-0.8,1.3-1.7,2-2.5c0.7-0.8,1.3-1.7,2-2.5
			h-3.6c0-0.1,0-0.3-0.1-0.4c0-0.1,0-0.3-0.1-0.4h4.9l0.1,0.9l-4.1,5h4c0,0.1,0,0.3,0.1,0.4C177.5,526.2,177.5,526.3,177.6,526.5z"
			/>
		<path class="st38" d="M183.3,526.5h-5.2c0-0.1-0.1-0.3-0.1-0.4c0-0.1,0-0.3-0.1-0.4c0.7-0.8,1.3-1.7,2-2.5c0.7-0.8,1.3-1.7,2-2.5
			h-3.6c0-0.1,0-0.3-0.1-0.4c0-0.1,0-0.3-0.1-0.4h4.9l0.1,0.9l-4.1,5h4c0,0.1,0,0.3,0.1,0.4C183.3,526.2,183.3,526.3,183.3,526.5z"
			/>
		<path class="st38" d="M184.4,526.5v-6.8h3.9l0.2,0.9h-3v2h1.9c0,0.1,0.1,0.3,0.1,0.4c0,0.2,0.1,0.3,0.1,0.4h-2v2.1h3.3
			c0,0.1,0.1,0.3,0.1,0.4c0,0.1,0.1,0.3,0.1,0.4H184.4z"/>
		<path class="st38" d="M190.1,526.5v-6.8h1.1l2.8,4c0.1,0.1,0.2,0.3,0.3,0.4c0.1,0.1,0.2,0.3,0.3,0.4v-4.8h1.1v6.8h-1.1l-2.8-4
			l-0.5-0.8v4.8H190.1z"/>
		<path class="st38" d="M199.7,519.7c0.7,0,1.2,0.1,1.6,0.4c0.4,0.3,0.6,0.8,0.6,1.5c0,0.3-0.1,0.5-0.2,0.7s-0.3,0.4-0.5,0.5
			c0.3,0.1,0.6,0.4,0.8,0.6c0.2,0.3,0.3,0.6,0.3,1.1c0,0.7-0.2,1.1-0.7,1.5c-0.5,0.3-1,0.5-1.8,0.5h-2.6v-6.8H199.7z M199.6,520.6
			h-1v1.9h1c0.4,0,0.7-0.1,1-0.2c0.2-0.1,0.4-0.4,0.4-0.7c0-0.4-0.1-0.6-0.3-0.8C200.3,520.7,200,520.6,199.6,520.6z M200,523.4
			h-1.5v2.1h1.4c0.4,0,0.7-0.1,1-0.3c0.3-0.2,0.4-0.4,0.4-0.8c0-0.4-0.1-0.6-0.3-0.8C200.7,523.5,200.4,523.4,200,523.4z"/>
		<path class="st38" d="M204.9,524c0,0.6,0.1,1,0.4,1.3c0.3,0.3,0.7,0.4,1.1,0.4c0.5,0,0.9-0.2,1.1-0.5c0.3-0.3,0.4-0.7,0.4-1.3
			v-4.3h1.1v4.3c0,0.7-0.2,1.3-0.7,1.8c-0.5,0.5-1.1,0.7-2,0.7s-1.5-0.2-2-0.7c-0.5-0.5-0.7-1.1-0.7-1.8v-4.3h1.1V524z"/>
		<path class="st38" d="M215.1,520.8c-0.3-0.1-0.5-0.2-0.7-0.2c-0.2-0.1-0.4-0.1-0.7-0.1c-0.6,0-1,0.2-1.4,0.7
			c-0.3,0.5-0.5,1.1-0.5,1.9c0,0.7,0.1,1.3,0.4,1.8c0.3,0.5,0.7,0.8,1.3,0.8c0.3,0,0.6,0,0.8-0.1c0.2-0.1,0.5-0.1,0.7-0.2l0.4,0.8
			c-0.2,0.1-0.5,0.2-0.9,0.3c-0.4,0.1-0.7,0.1-1,0.1c-1.1,0-1.8-0.3-2.3-1c-0.5-0.7-0.7-1.5-0.7-2.5c0-1,0.3-1.9,0.8-2.6
			s1.3-1,2.3-1c0.2,0,0.5,0,0.8,0.1s0.7,0.2,0.9,0.3L215.1,520.8z"/>
		<path class="st38" d="M220.8,526.5v-3h-2.9v3h-1.1v-6.8l1.1,0v3h2.9v-2.9h1.1v6.8H220.8z"/>
	</g>
</g>
<g id="Tasse">
	<ellipse id="Schatten_1_" class="st2" cx="711.6" cy="699.9" rx="84.9" ry="15.9"/>
	<g id="Tasse_1_">
		<polygon class="st1" points="746,698.3 631.4,698.3 631.4,556.1 633.8,556.1 746,556.1 		"/>
		<ellipse class="st1" cx="688.7" cy="698.3" rx="57.3" ry="12.4"/>
		<ellipse class="st1" cx="688.7" cy="556.1" rx="57.3" ry="12.4"/>
	</g>
	<path id="Griff" class="st1" d="M736.9,582.4c-30.4,0-55.1,22.6-55.1,50.4c0,27.8,24.7,50.4,55.1,50.4s55.1-22.6,55.1-50.4
		C792,604.9,767.3,582.4,736.9,582.4z M741.5,666.1c-20.1,0-36.4-14.9-36.4-33.3s16.3-33.3,36.4-33.3c20.1,0,36.4,14.9,36.4,33.3
		S761.6,666.1,741.5,666.1z"/>
	
		<linearGradient id="Innen_2_" gradientUnits="userSpaceOnUse" x1="688.6823" y1="173.3098" x2="688.7188" y2="142.9348" gradientTransform="matrix(1 0 0 -1 0 715.8898)">
		<stop  offset="0" style="stop-color:#F6F6F6"/>
		<stop  offset="1" style="stop-color:#C6C6C6"/>
	</linearGradient>
	<ellipse id="Innen" class="st69" cx="688.7" cy="557.3" rx="52.2" ry="10.4"/>
	<g id="Logo">
		<g>
			<path class="st38" d="M647.8,651.8c0-1.8,0-3.7,0-5.5c0.6,0.3,1.2,0.5,2,0.7c1.2,0.3,2.1,0.2,2.7-0.3c0.6-0.5,0.9-1.4,0.9-2.6
				c0-9.9,0-19.9,0-29.8c2,0.4,4,0.8,6.1,1.1c0,9.9,0,19.7,0,29.6c0,3.2-0.7,5.4-2.2,6.7s-3.7,1.6-6.6,1
				C649.5,652.4,648.6,652.1,647.8,651.8z"/>
			<path class="st38" d="M677.1,617.3c5.6,0.3,11.2,0.4,16.8,0.2c0,1.9,0,3.7,0,5.6c-3.5,0.1-7.1,0.1-10.6,0.1c0,3.4,0,6.9,0,10.3
				c2.8,0.1,5.6,0.1,8.4,0c0,1.9,0,3.7,0,5.6c-2.8,0.1-5.6,0.1-8.4,0c0,4,0,8,0,12c3.5,0.1,7.1,0.1,10.6-0.1c0,1.9,0,3.7,0,5.6
				c-5.6,0.2-11.2,0.1-16.8-0.2C677.1,643.3,677.1,630.3,677.1,617.3z"/>
			<path class="st38" d="M698.1,617.3c2-0.1,4.1-0.3,6.1-0.5c0,13,0,26,0,39.1c-2,0.2-4.1,0.4-6.1,0.5
				C698.1,643.4,698.1,630.3,698.1,617.3z"/>
			<path class="st38" d="M708.5,616.4c2.6-0.3,5.1-0.7,7.7-1.1c2,7.5,3.9,14.9,5.9,22.3h0.1c0-7.8,0-15.6,0-23.4
				c1.8-0.4,3.6-0.8,5.4-1.2c0,13,0,26,0,39.1c-2.1,0.5-4.1,1-6.2,1.4c-2.4-9-4.9-18.1-7.3-27.2H714c0,9.5,0,19,0,28.5
				c-1.8,0.3-3.6,0.5-5.4,0.8C708.5,642.4,708.5,629.4,708.5,616.4L708.5,616.4z"/>
			<path class="st38" d="M666.7,616.3c0,5.3,0,10.6,0,15.9c-2.1-0.3-4.2-0.6-6.3-0.9c0,1.9,0,3.7,0,5.6c2.1,0.3,4.2,0.6,6.3,0.9
				c0,5.9,0,11.7,0,17.6c2,0.3,4.1,0.5,6.1,0.6c0-13,0-26,0-39.1C670.8,616.8,668.7,616.6,666.7,616.3z"/>
		</g>
	</g>
</g>
<g id="Visitenkarte">
	<ellipse id="Schatten" class="st2" cx="281.7" cy="710.7" rx="55.8" ry="3"/>
	<rect id="BG_2_" x="229.1" y="644.1" class="st3" width="105.2" height="66.6"/>
	<g id="Logo_1_">
		<path class="st1" d="M257.2,689.3v-3.4c0.4,0.1,0.8,0.1,1.2,0.1c0.8,0,1.3-0.2,1.7-0.6c0.4-0.4,0.5-0.9,0.5-1.7v-18.3h3.8v18.2
			c0,2-0.5,3.4-1.4,4.4c-0.9,0.9-2.3,1.4-4.1,1.4C258.3,689.4,257.7,689.4,257.2,689.3z"/>
		<path class="st39" d="M275.2,665.4h10.2v3.4H279v6.3h5.2v3.4H279v7.4h6.5v3.4h-10.2L275.2,665.4L275.2,665.4z"/>
		<path class="st39" d="M288,665.4h3.8v24H288V665.4z"/>
		<path class="st39" d="M294.4,665.4h4.7l3.7,14.4h0.1v-14.4h3.3v24h-3.9l-4.5-17.5h-0.1v17.5h-3.3L294.4,665.4L294.4,665.4z"/>
		<polygon class="st39" points="268.8,665.4 268.8,675.2 265,675.2 265,678.6 268.8,678.6 268.8,689.4 272.6,689.4 272.6,665.4 		
			"/>
	</g>
</g>
</svg>
