<?xml version="1.0" encoding="utf-8"?>
<!-- Generator: Adobe Illustrator 24.2.0, SVG Export Plug-In . SVG Version: 6.00 Build 0)  -->
<svg version="1.1" id="Illustration_1_" xmlns="http://www.w3.org/2000/svg" xmlns:xlink="http://www.w3.org/1999/xlink" x="0px"
	 y="0px" viewBox="0 0 905.1 1138.5" style="enable-background:new 0 0 905.1 1138.5;" xml:space="preserve">
<style type="text/css">
	.st0{fill:#16748E;}
	.st1{fill:#0F4D63;}
	.st2{fill:url(#SVGID_1_);}
	.st3{fill:#FFFFFF;}
	.st4{fill:#686868;}
	.st5{fill:#D1D1D1;}
	.st6{fill:url(#SVGID_2_);}
	.st7{fill:url(#SVGID_3_);}
	.st8{fill:url(#SVGID_4_);}
	.st9{fill:url(#SVGID_5_);}
	.st10{fill:url(#SVGID_6_);}
	.st11{fill:url(#SVGID_7_);}
</style>
<g id="BG">
	<path class="st0" d="M625.6,312.7c70.8,13.4,161.9,68,184.1,155c19,74.5-16.6,156.5-67.7,201.1c-65,56.8-123.7,26.1-160.1,77.6
		c-41,57.8,20.4,115-5.6,206.9c-23.5,83.1-110.8,168.1-215.9,171.7c-111.2,3.9-198-84.7-230.4-163.1c-37.2-90,14.9-124.4,10.4-279.1
		C135.2,503.1,63.1,488,73,335.1c2.4-37.2,12.7-197.2,132-283.8C226,36,299.5-17.4,381.3,5.7c82.3,23.3,139.9,115.1,135.5,189.1
		c-2.9,49.7-32.9,75.5-17.4,99.2C516.9,320.7,563.6,301,625.6,312.7z"/>
	<path class="st1" d="M277.4,884.9C208,904.1,102.2,895.3,43.8,827c-50-58.5-54.1-147.7-28-210.4c33.2-79.7,99.5-78,109.5-140.2
		c11.2-70-69-94.2-86.2-188.2c-15.6-85,25.3-199.7,118-249.3c98-52.5,215.1-11.3,278.7,44.8c73,64.4,41.5,118.2,113.7,255.1
		c84,159,155.3,140.7,213.9,282.4c14.2,34.4,75.5,182.6,6.7,313c-12.1,22.9-54.5,103.3-138.1,118.5c-84.2,15.4-176.3-41.6-205-109.9
		c-19.3-45.9-3.8-82.3-28.1-96.7C371.5,829.8,338.3,868.1,277.4,884.9z"/>
</g>
<g id="Smartphone">
	<linearGradient id="SVGID_1_" gradientUnits="userSpaceOnUse" x1="199.5976" y1="534.9701" x2="673.5317" y2="534.9701">
		<stop  offset="0" style="stop-color:#2C2C2C"/>
		<stop  offset="0.3563" style="stop-color:#444444"/>
		<stop  offset="1" style="stop-color:#313130"/>
	</linearGradient>
	<path class="st2" d="M619.2,1032.4H253.9c-30,0-54.3-24.3-54.3-54.3V91.9c0-30,24.3-54.3,54.3-54.3h365.3c30,0,54.3,24.3,54.3,54.3
		V978C673.5,1008.1,649.2,1032.4,619.2,1032.4z"/>
	<rect x="214.1" y="120" class="st3" width="445" height="830"/>
	<path class="st4" d="M465.9,89.7h-58.7c-3.4,0-6.1-2.7-6.1-6.1v0c0-3.4,2.7-6.1,6.1-6.1h58.7c3.4,0,6.1,2.7,6.1,6.1v0
		C472,87,469.3,89.7,465.9,89.7z"/>
</g>
<g id="Links">
	<rect x="214.1" y="119.8" class="st5" width="445" height="65.8"/>
	<rect x="228.5" y="221.2" class="st4" width="415.8" height="248.8"/>
	<rect x="228.7" y="803.5" class="st4" width="415.8" height="146.5"/>
	<rect x="228.7" y="510.8" class="st5" width="415.8" height="40.1"/>
	<rect x="228.5" y="581.1" class="st5" width="415.8" height="25.6"/>
	<rect x="228.5" y="620.9" class="st5" width="415.8" height="25.6"/>
	<rect x="228.5" y="660.7" class="st5" width="415.8" height="25.6"/>
	<rect x="228.5" y="700.5" class="st5" width="415.8" height="25.6"/>
	<rect x="228.7" y="740.2" class="st5" width="73.3" height="25.6"/>
	<rect x="228.5" y="134.4" class="st4" width="79" height="36.7"/>
	<rect x="601.2" y="134.4" class="st4" width="40.7" height="7.1"/>
	<rect x="601.2" y="164" class="st4" width="40.7" height="7.1"/>
	<rect x="601.2" y="149.2" class="st4" width="40.7" height="7.1"/>
</g>
<g id="Rechts">
	<polygon class="st1" points="214.1,950 659.1,120 659.1,950 	"/>
	<linearGradient id="SVGID_2_" gradientUnits="userSpaceOnUse" x1="613.713" y1="295.1605" x2="769.7765" y2="295.1605">
		<stop  offset="0" style="stop-color:#16748E"/>
		<stop  offset="1" style="stop-color:#228EA0"/>
	</linearGradient>
	<path class="st6" d="M613.7,331.4c27.4-41.5,60.9-69.7,106-72.4c58.8-1.6,65.9,70.5,20.6,56.6C697.4,296.2,655.4,308.5,613.7,331.4
		z"/>
	<linearGradient id="SVGID_3_" gradientUnits="userSpaceOnUse" x1="525.1703" y1="914.6377" x2="785.675" y2="1064.5967">
		<stop  offset="0" style="stop-color:#16748E"/>
		<stop  offset="1" style="stop-color:#228EA0"/>
	</linearGradient>
	<path class="st7" d="M497,849.9c28.1,101.3,77,179.9,166.2,214.6c123.8,52,188.6-72.5,77.1-91.7C637.4,963.5,566,923.1,497,849.9z"
		/>
	<linearGradient id="SVGID_4_" gradientUnits="userSpaceOnUse" x1="573.2973" y1="383.3877" x2="853.428" y2="383.3877">
		<stop  offset="0" style="stop-color:#D33E20"/>
		<stop  offset="0.4263" style="stop-color:#D36922"/>
		<stop  offset="1" style="stop-color:#E8882A"/>
	</linearGradient>
	<path class="st8" d="M573.3,367.2c64.3,53.5,131.9,82.7,205.9,64.9c104.5-22.1,90.4-132.9,8.8-94.9
		C716.6,377.8,651.5,383.8,573.3,367.2z"/>
	<linearGradient id="SVGID_5_" gradientUnits="userSpaceOnUse" x1="557.4624" y1="644.7933" x2="747.3525" y2="667.3428">
		<stop  offset="0" style="stop-color:#16748E"/>
		<stop  offset="1" style="stop-color:#228EA0"/>
	</linearGradient>
	<path class="st9" d="M538.1,640.2c53.2-25.3,107.6-40.5,166.2-22.7c107.1,30.4,38.3,138.8-22.7,73.5
		C640.6,635.7,618.9,647.5,538.1,640.2z"/>
	<linearGradient id="SVGID_6_" gradientUnits="userSpaceOnUse" x1="457.0136" y1="779.3893" x2="905.0955" y2="779.3893">
		<stop  offset="0" style="stop-color:#D33E20"/>
		<stop  offset="0.4263" style="stop-color:#D36922"/>
		<stop  offset="1" style="stop-color:#E8882A"/>
	</linearGradient>
	<path class="st10" d="M457,624.4c52.8,122.1,122.9,229,249.2,285.8c227.6,107.5,271.6-179.4,70.6-159
		C624.6,784.4,605.5,732.1,457,624.4z"/>
	<path class="st3" d="M367.8,856.4c63.2,44.9,115.6,97.8,132.7,176.7c33.7,142.8-135.2,133.1-99.2,21
		C438.7,971.4,411.2,954.1,367.8,856.4z"/>
	<path class="st3" d="M555.3,458c94.3,21.6,185.7,39.6,248,21.5c82.2-16.7,97.4,86.7,4.8,97.3C742,584.8,650.1,525.1,555.3,458z"/>
	<path class="st3" d="M624.2,233.1c38.1-35.1,73.7-69.9,84.6-102.9c17.5-41.3,67.7-16.7,44.4,27.3
		C736.7,189.1,682.5,211.6,624.2,233.1z"/>
	<linearGradient id="SVGID_7_" gradientUnits="userSpaceOnUse" x1="334.0491" y1="912.3257" x2="345.9689" y2="1050.8633">
		<stop  offset="0" style="stop-color:#D33E20"/>
		<stop  offset="0.4263" style="stop-color:#D36922"/>
		<stop  offset="1" style="stop-color:#E8882A"/>
	</linearGradient>
	<path class="st11" d="M335,890.6c5.8,51.4,13,100.7,33.2,129c23,38.5-26.5,64.5-48.3,19.7C304.2,1007.4,318,950.4,335,890.6z"/>
</g>
</svg>
